Caveat-Bold.ufo
<glyph name="V" format="2">
  <advance width="490"/>
  <unicode hex="0056"/>
  <outline>
    <contour>
      <point x="264" y="-60" type="curve"/>
      <point x="278" y="-67"/>
      <point x="332" y="-37"/>
      <point x="347" y="-14" type="curve"/>
      <point x="348" y="-6"/>
      <point x="363" y="10"/>
      <point x="370" y="33" type="curve"/>
      <point x="395" y="90"/>
      <point x="395" y="90"/>
      <point x="443" y="201" type="curve"/>
      <point x="464" y="244"/>
      <point x="489" y="296"/>
      <point x="503" y="309" type="curve"/>
      <point x="513" y="322"/>
      <point x="517" y="339"/>
      <point x="524" y="354" type="curve"/>
      <point x="542" y="388"/>
      <point x="602" y="491"/>
      <point x="643" y="552" type="curve"/>
      <point x="694" y="626"/>
      <point x="689" y="649"/>
      <point x="674" y="672" type="curve"/>
      <point x="664" y="685"/>
      <point x="656" y="685"/>
      <point x="641" y="683" type="curve"/>
      <point x="620" y="683"/>
      <point x="593" y="654"/>
      <point x="554" y="590" type="curve"/>
      <point x="526" y="537"/>
      <point x="507" y="510"/>
      <point x="485" y="476" type="curve"/>
      <point x="466" y="441"/>
      <point x="442" y="394"/>
      <point x="434" y="373" type="curve"/>
      <point x="412" y="323"/>
      <point x="388" y="290"/>
      <point x="364" y="234" type="curve"/>
      <point x="351" y="198"/>
      <point x="331" y="156"/>
      <point x="314" y="123" type="curve"/>
      <point x="302" y="96"/>
      <point x="300" y="80"/>
      <point x="292" y="79" type="curve"/>
      <point x="285" y="78"/>
      <point x="284" y="93"/>
      <point x="284" y="100" type="curve"/>
      <point x="280" y="132"/>
      <point x="288" y="204"/>
      <point x="293" y="314" type="curve"/>
      <point x="296" y="369"/>
      <point x="301" y="426"/>
      <point x="312" y="481" type="curve"/>
      <point x="325" y="542"/>
      <point x="325" y="619"/>
      <point x="321" y="642" type="curve"/>
      <point x="322" y="656"/>
      <point x="322" y="680"/>
      <point x="301" y="690" type="curve"/>
      <point x="293" y="693"/>
      <point x="276" y="693"/>
      <point x="268" y="690" type="curve"/>
      <point x="239" y="677"/>
      <point x="232" y="642"/>
      <point x="235" y="616" type="curve"/>
      <point x="235" y="602"/>
      <point x="231" y="582"/>
      <point x="228" y="559" type="curve"/>
      <point x="219" y="529"/>
      <point x="219" y="487"/>
      <point x="210" y="458" type="curve"/>
      <point x="214" y="437"/>
      <point x="203" y="395"/>
      <point x="206" y="365" type="curve"/>
      <point x="193" y="270"/>
      <point x="193" y="250"/>
      <point x="187" y="156" type="curve"/>
      <point x="194" y="27"/>
      <point x="202" y="9"/>
      <point x="224" y="-13" type="curve"/>
      <point x="246" y="-18"/>
      <point x="253" y="-24"/>
      <point x="253" y="-38" type="curve"/>
      <point x="255" y="-54"/>
      <point x="257" y="-58"/>
    </contour>
  </outline>
</glyph>
<glyph name="yen" format="2">
  <advance width="450"/>
  <unicode hex="00A5"/>
  <outline>
    <contour>
      <point x="229" y="680" type="curve"/>
      <point x="224" y="669"/>
      <point x="203" y="635"/>
      <point x="202" y="585" type="curve"/>
      <point x="200" y="503"/>
      <point x="197" y="470"/>
      <point x="211" y="423" type="curve"/>
      <point x="218" y="372"/>
      <point x="233" y="343"/>
      <point x="260" y="303" type="curve"/>
      <point x="295" y="259" type="line"/>
      <point x="337" y="254" type="line"/>
      <point x="344" y="264"/>
      <point x="366" y="262"/>
      <point x="367" y="265" type="curve"/>
      <point x="377" y="274"/>
      <point x="429" y="329"/>
      <point x="488" y="397" type="curve"/>
      <point x="528" y="447"/>
      <point x="607" y="528"/>
      <point x="634" y="551" type="curve"/>
      <point x="643" y="560"/>
      <point x="676" y="593"/>
      <point x="677" y="600" type="curve"/>
      <point x="678" y="607"/>
      <point x="665" y="619"/>
      <point x="662" y="625" type="curve"/>
      <point x="652" y="638"/>
      <point x="656" y="655"/>
      <point x="645" y="658" type="curve"/>
      <point x="645" y="658"/>
      <point x="609" y="650"/>
      <point x="602" y="638" type="curve"/>
      <point x="570" y="619"/>
      <point x="488" y="509"/>
      <point x="414" y="433" type="curve"/>
      <point x="361" y="378"/>
      <point x="353" y="358"/>
      <point x="329" y="365" type="curve"/>
      <point x="308" y="382"/>
      <point x="293" y="452"/>
      <point x="289" y="595" type="curve"/>
      <point x="290" y="652"/>
      <point x="271" y="716"/>
    </contour>
    <contour>
      <point x="239" y="-76" type="curve"/>
      <point x="258" y="-82"/>
      <point x="273" y="-54"/>
      <point x="297" y="37" type="curve"/>
      <point x="309" y="71"/>
      <point x="329" y="142"/>
      <point x="346" y="197" type="curve"/>
      <point x="365" y="276"/>
      <point x="368" y="284"/>
      <point x="376" y="297" type="curve"/>
      <point x="324" y="333" type="line"/>
      <point x="284" y="299" type="line"/>
      <point x="266" y="247" type="line"/>
      <point x="253" y="216"/>
      <point x="235" y="164"/>
      <point x="235" y="142" type="curve"/>
      <point x="219" y="113"/>
      <point x="206" y="62"/>
      <point x="205" y="31" type="curve"/>
      <point x="191" y="-23"/>
      <point x="185" y="-36"/>
      <point x="200" y="-52" type="curve"/>
      <point x="213" y="-61"/>
      <point x="234" y="-75"/>
    </contour>
    <contour>
      <point x="144" y="107" type="curve"/>
      <point x="182" y="107"/>
      <point x="339" y="111"/>
      <point x="354" y="112" type="curve"/>
      <point x="378" y="114"/>
      <point x="447" y="113"/>
      <point x="457" y="114" type="curve"/>
      <point x="487" y="109"/>
      <point x="501" y="139"/>
      <point x="481" y="159" type="curve"/>
      <point x="466" y="173"/>
      <point x="437" y="179"/>
      <point x="403" y="179" type="curve"/>
      <point x="349" y="179"/>
      <point x="169" y="178"/>
      <point x="124" y="168" type="curve"/>
      <point x="75" y="163"/>
      <point x="57" y="152"/>
      <point x="72" y="132" type="curve"/>
      <point x="77" y="123"/>
      <point x="89" y="112"/>
      <point x="109" y="112" type="curve"/>
      <point x="124" y="107"/>
      <point x="136" y="107"/>
    </contour>
    <contour>
      <point x="524" y="299" type="curve"/>
      <point x="509" y="313"/>
      <point x="481" y="320"/>
      <point x="447" y="320" type="curve"/>
      <point x="393" y="320"/>
      <point x="212" y="318"/>
      <point x="167" y="308" type="curve"/>
      <point x="118" y="303"/>
      <point x="101" y="292"/>
      <point x="116" y="272" type="curve"/>
      <point x="121" y="263"/>
      <point x="132" y="252"/>
      <point x="152" y="252" type="curve"/>
      <point x="167" y="247"/>
      <point x="179" y="247"/>
      <point x="187" y="247" type="curve"/>
      <point x="225" y="247"/>
      <point x="408" y="249"/>
      <point x="423" y="250" type="curve"/>
      <point x="447" y="252"/>
      <point x="491" y="254"/>
      <point x="501" y="255" type="curve"/>
      <point x="531" y="250"/>
      <point x="544" y="279"/>
    </contour>
  </outline>
</glyph>
<glyph name="dieresis" format="2">
  <advance width="353"/>
  <unicode hex="00A8"/>
  <outline>
    <contour>
      <point x="235" y="429" type="curve"/>
      <point x="255" y="410"/>
      <point x="275" y="411"/>
      <point x="300" y="445" type="curve"/>
      <point x="329" y="479"/>
      <point x="335" y="493"/>
      <point x="320" y="524" type="curve"/>
      <point x="305" y="551"/>
      <point x="285" y="562"/>
      <point x="266" y="548" type="curve"/>
      <point x="259" y="547"/>
      <point x="253" y="537"/>
      <point x="248" y="533" type="curve"/>
      <point x="228" y="516"/>
      <point x="218" y="485"/>
      <point x="216" y="476" type="curve"/>
      <point x="213" y="468"/>
      <point x="222" y="440"/>
    </contour>
    <contour>
      <point x="390" y="429" type="curve"/>
      <point x="410" y="410"/>
      <point x="430" y="411"/>
      <point x="455" y="445" type="curve"/>
      <point x="484" y="479"/>
      <point x="490" y="493"/>
      <point x="475" y="524" type="curve"/>
      <point x="460" y="551"/>
      <point x="440" y="562"/>
      <point x="421" y="548" type="curve"/>
      <point x="414" y="547"/>
      <point x="408" y="537"/>
      <point x="403" y="533" type="curve"/>
      <point x="383" y="516"/>
      <point x="373" y="485"/>
      <point x="371" y="476" type="curve"/>
      <point x="368" y="468"/>
      <point x="377" y="440"/>
    </contour>
  </outline>
</glyph>
<glyph name="periodcentered" format="2">
  <advance width="187"/>
  <unicode hex="00B7"/>
  <outline>
    <contour>
      <point x="146" y="233" type="curve"/>
      <point x="164" y="218"/>
      <point x="199" y="226"/>
      <point x="219" y="253" type="curve"/>
      <point x="243" y="282"/>
      <point x="248" y="308"/>
      <point x="236" y="334" type="curve"/>
      <point x="223" y="355"/>
      <point x="192" y="364"/>
      <point x="176" y="353" type="curve"/>
      <point x="171" y="352"/>
      <point x="166" y="346"/>
      <point x="166" y="341" type="curve"/>
      <point x="168" y="325"/>
      <point x="141" y="290"/>
      <point x="131" y="289" type="curve"/>
      <point x="125" y="289"/>
      <point x="136" y="242"/>
    </contour>
  </outline>
</glyph>
<glyph name="AE" format="2">
  <advance width="784"/>
  <unicode hex="00C6"/>
  <anchor x="717" y="785" name="topUC"/>
  <outline>
    <contour>
      <point x="560" y="-50" type="curve"/>
      <point x="624" y="-51"/>
      <point x="635" y="-46"/>
      <point x="685" y="-24" type="curve"/>
      <point x="751" y="2"/>
      <point x="807" y="27"/>
      <point x="807" y="41" type="curve"/>
      <point x="808" y="47"/>
      <point x="772" y="102"/>
      <point x="768" y="102" type="curve"/>
      <point x="758" y="102"/>
      <point x="752" y="97"/>
      <point x="746" y="90" type="curve"/>
      <point x="741" y="90"/>
      <point x="722" y="81"/>
      <point x="716" y="81" type="curve"/>
      <point x="707" y="76"/>
      <point x="681" y="61"/>
      <point x="657" y="47" type="curve"/>
      <point x="599" y="32"/>
      <point x="574" y="34"/>
      <point x="547" y="39" type="curve"/>
      <point x="504" y="59"/>
      <point x="501" y="96"/>
      <point x="506" y="116" type="curve"/>
      <point x="517" y="178"/>
      <point x="519" y="182"/>
      <point x="542" y="233" type="curve"/>
      <point x="557" y="295"/>
      <point x="563" y="300"/>
      <point x="574" y="291" type="curve"/>
      <point x="607" y="291"/>
      <point x="775" y="332"/>
      <point x="792" y="346" type="curve"/>
      <point x="815" y="355"/>
      <point x="818" y="392"/>
      <point x="793" y="397" type="curve"/>
      <point x="785" y="403"/>
      <point x="755" y="402"/>
      <point x="720" y="397" type="curve"/>
      <point x="690" y="397"/>
      <point x="649" y="390"/>
      <point x="617" y="385" type="curve"/>
      <point x="605" y="390"/>
      <point x="609" y="410"/>
      <point x="622" y="428" type="curve"/>
      <point x="637" y="449"/>
      <point x="650" y="470"/>
      <point x="650" y="483" type="curve"/>
      <point x="651" y="492"/>
      <point x="687" y="564"/>
      <point x="693" y="564" type="curve"/>
      <point x="698" y="564"/>
      <point x="730" y="564"/>
      <point x="744" y="570" type="curve"/>
      <point x="758" y="570"/>
      <point x="807" y="582"/>
      <point x="835" y="582" type="curve"/>
      <point x="917" y="581"/>
      <point x="935" y="586"/>
      <point x="944" y="589" type="curve"/>
      <point x="944" y="589"/>
      <point x="977" y="604"/>
      <point x="934" y="639" type="curve"/>
      <point x="917" y="647"/>
      <point x="902" y="658"/>
      <point x="873" y="658" type="curve"/>
      <point x="826" y="662"/>
      <point x="759" y="660"/>
      <point x="747" y="652" type="curve"/>
      <point x="718" y="650"/>
      <point x="660" y="638"/>
      <point x="625" y="624" type="curve"/>
      <point x="587" y="637"/>
      <point x="550" y="645"/>
      <point x="530" y="645" type="curve"/>
      <point x="513" y="645"/>
      <point x="487" y="646"/>
      <point x="458" y="618" type="curve"/>
      <point x="440" y="599"/>
      <point x="428" y="584"/>
      <point x="420" y="570" type="curve"/>
      <point x="406" y="555"/>
      <point x="391" y="532"/>
      <point x="370" y="514" type="curve"/>
      <point x="355" y="492"/>
      <point x="335" y="464"/>
      <point x="327" y="458" type="curve"/>
      <point x="319" y="446"/>
      <point x="315" y="440"/>
      <point x="295" y="403" type="curve"/>
      <point x="274" y="380"/>
      <point x="240" y="328"/>
      <point x="238" y="316" type="curve"/>
      <point x="238" y="312"/>
      <point x="227" y="310"/>
      <point x="217" y="306" type="curve"/>
      <point x="172" y="310"/>
      <point x="164" y="258"/>
      <point x="178" y="252" type="curve"/>
      <point x="191" y="239"/>
      <point x="189" y="226"/>
      <point x="174" y="212" type="curve"/>
      <point x="161" y="206"/>
      <point x="107" y="116"/>
      <point x="96" y="94" type="curve"/>
      <point x="96" y="94"/>
      <point x="89" y="82"/>
      <point x="81" y="73" type="curve"/>
      <point x="48" y="34"/>
      <point x="48" y="9"/>
      <point x="71" y="-4" type="curve"/>
      <point x="82" y="-14"/>
      <point x="88" y="-18"/>
      <point x="104" y="-18" type="curve"/>
      <point x="110" y="-18"/>
      <point x="123" y="-14"/>
      <point x="151" y="28" type="curve"/>
      <point x="176" y="58"/>
      <point x="200" y="99"/>
      <point x="214" y="125" type="curve"/>
      <point x="229" y="153"/>
      <point x="244" y="176"/>
      <point x="254" y="188" type="curve"/>
      <point x="271" y="209" type="line"/>
      <point x="338" y="205"/>
      <point x="386" y="201"/>
      <point x="414" y="203" type="curve"/>
      <point x="426" y="203" type="line"/>
      <point x="421" y="187"/>
      <point x="413" y="158"/>
      <point x="409" y="127" type="curve"/>
      <point x="399" y="79"/>
      <point x="408" y="13"/>
      <point x="449" y="-18" type="curve"/>
      <point x="483" y="-45"/>
      <point x="507" y="-50"/>
    </contour>
    <contour>
      <point x="332" y="287" type="curve"/>
      <point x="322" y="293"/>
      <point x="325" y="303"/>
      <point x="377" y="379" type="curve"/>
      <point x="400" y="411"/>
      <point x="423" y="447"/>
      <point x="429" y="454" type="curve"/>
      <point x="443" y="475"/>
      <point x="496" y="539"/>
      <point x="506" y="532" type="curve"/>
      <point x="534" y="534"/>
      <point x="553" y="534"/>
      <point x="571" y="525" type="curve"/>
      <point x="562.0" y="504.0"/>
      <point x="548" y="484"/>
      <point x="521" y="434" type="curve"/>
      <point x="514" y="420"/>
      <point x="507" y="403"/>
      <point x="500" y="397" type="curve"/>
      <point x="496" y="391"/>
      <point x="492" y="381"/>
      <point x="487" y="368" type="curve"/>
      <point x="481" y="354"/>
      <point x="475" y="343"/>
      <point x="475" y="343" type="curve"/>
      <point x="474" y="340"/>
      <point x="473" y="324"/>
      <point x="469" y="316" type="curve"/>
      <point x="466" y="306"/>
      <point x="458" y="300"/>
      <point x="456" y="292" type="curve"/>
      <point x="439" y="293"/>
      <point x="412" y="293"/>
      <point x="387" y="291" type="curve"/>
      <point x="350" y="292"/>
      <point x="332" y="287"/>
    </contour>
  </outline>
</glyph>
<glyph name="eth" format="2">
  <advance width="349"/>
  <unicode hex="00F0"/>
  <outline>
    <contour>
      <point x="180" y="-8" type="curve"/>
      <point x="210" y="-6"/>
      <point x="240" y="14"/>
      <point x="268" y="34" type="curve"/>
      <point x="304" y="60"/>
      <point x="338" y="87"/>
      <point x="368" y="138" type="curve"/>
      <point x="441" y="265"/>
      <point x="441" y="468"/>
      <point x="356" y="577" type="curve"/>
      <point x="331" y="610"/>
      <point x="319" y="628"/>
      <point x="314" y="623" type="curve"/>
      <point x="310" y="628"/>
      <point x="279" y="651"/>
      <point x="270" y="645" type="curve"/>
      <point x="258" y="644"/>
      <point x="220" y="609"/>
      <point x="221" y="604" type="curve"/>
      <point x="231" y="586"/>
      <point x="246" y="577"/>
      <point x="266" y="556" type="curve"/>
      <point x="315" y="488"/>
      <point x="326" y="438"/>
      <point x="333" y="375" type="curve"/>
      <point x="332" y="375"/>
      <point x="330" y="376"/>
      <point x="329" y="377" type="curve"/>
      <point x="309" y="395"/>
      <point x="310" y="394"/>
      <point x="281" y="387" type="curve"/>
      <point x="251" y="377"/>
      <point x="216" y="358"/>
      <point x="185" y="327" type="curve"/>
      <point x="160" y="307"/>
      <point x="129" y="258"/>
      <point x="120" y="238" type="curve"/>
      <point x="100" y="206"/>
      <point x="87" y="155"/>
      <point x="90" y="146" type="curve"/>
      <point x="91" y="140"/>
      <point x="91" y="135"/>
      <point x="86" y="134" type="curve"/>
      <point x="83" y="129"/>
      <point x="78" y="129"/>
      <point x="85" y="122" type="curve"/>
      <point x="85" y="122"/>
      <point x="90" y="111"/>
      <point x="86" y="99" type="curve"/>
      <point x="82" y="76"/>
      <point x="115" y="33"/>
      <point x="141" y="8" type="curve"/>
      <point x="155" y="-4"/>
      <point x="162" y="-11"/>
    </contour>
    <contour>
      <point x="256" y="124" type="curve"/>
      <point x="198" y="61"/>
      <point x="155" y="79"/>
      <point x="175" y="136" type="curve"/>
      <point x="201" y="203"/>
      <point x="217" y="245"/>
      <point x="258" y="283" type="curve"/>
      <point x="282" y="308"/>
      <point x="308" y="310"/>
      <point x="324" y="301" type="curve"/>
      <point x="335" y="296"/>
      <point x="327" y="247"/>
      <point x="323" y="226" type="curve"/>
      <point x="305" y="176"/>
      <point x="285" y="163"/>
    </contour>
    <contour>
      <point x="252" y="449" type="curve"/>
      <point x="267" y="447"/>
      <point x="279" y="449"/>
      <point x="287" y="451" type="curve"/>
      <point x="324" y="459"/>
      <point x="366" y="472"/>
      <point x="380" y="476" type="curve"/>
      <point x="403" y="483"/>
      <point x="438" y="493"/>
      <point x="447" y="496" type="curve"/>
      <point x="478" y="497"/>
      <point x="485" y="528"/>
      <point x="462" y="543" type="curve"/>
      <point x="444" y="554"/>
      <point x="421" y="556"/>
      <point x="389" y="549" type="curve"/>
      <point x="336" y="538"/>
      <point x="296" y="526"/>
      <point x="255" y="506" type="curve"/>
      <point x="208" y="491"/>
      <point x="194" y="477"/>
      <point x="212" y="460" type="curve"/>
      <point x="219" y="453"/>
      <point x="232" y="444"/>
    </contour>
  </outline>
</glyph>
<glyph name="OE" format="2">
  <advance width="784"/>
  <unicode hex="0152"/>
  <outline>
    <contour>
      <point x="603" y="-50" type="curve"/>
      <point x="666" y="-51"/>
      <point x="689" y="-35"/>
      <point x="739" y="-13" type="curve"/>
      <point x="805" y="13"/>
      <point x="833" y="25"/>
      <point x="833" y="39" type="curve"/>
      <point x="835" y="66"/>
      <point x="802" y="101"/>
      <point x="793" y="101" type="curve"/>
      <point x="783" y="101"/>
      <point x="779" y="96"/>
      <point x="774" y="89" type="curve"/>
      <point x="769" y="89"/>
      <point x="751" y="81"/>
      <point x="745" y="81" type="curve"/>
      <point x="736" y="76"/>
      <point x="708" y="60"/>
      <point x="684" y="46" type="curve"/>
      <point x="640" y="35"/>
      <point x="611" y="34"/>
      <point x="582" y="36" type="curve"/>
      <point x="561" y="44"/>
      <point x="533" y="63"/>
      <point x="532" y="98" type="curve"/>
      <point x="543" y="160"/>
      <point x="548" y="192"/>
      <point x="570" y="234" type="curve"/>
      <point x="583" y="294"/>
      <point x="591" y="307"/>
      <point x="602" y="292" type="curve"/>
      <point x="616" y="289"/>
      <point x="805" y="328"/>
      <point x="824" y="348" type="curve"/>
      <point x="840" y="355"/>
      <point x="849" y="389"/>
      <point x="825" y="394" type="curve"/>
      <point x="818" y="398"/>
      <point x="805" y="403"/>
      <point x="785" y="400" type="curve"/>
      <point x="755" y="400"/>
      <point x="677" y="390"/>
      <point x="645" y="385" type="curve"/>
      <point x="633" y="390"/>
      <point x="637" y="406"/>
      <point x="644" y="417" type="curve"/>
      <point x="652" y="437"/>
      <point x="679" y="467"/>
      <point x="679" y="480" type="curve"/>
      <point x="685" y="514"/>
      <point x="715" y="563"/>
      <point x="726" y="563" type="curve"/>
      <point x="726" y="563"/>
      <point x="742" y="563"/>
      <point x="761" y="569" type="curve"/>
      <point x="799" y="574"/>
      <point x="856" y="583"/>
      <point x="905" y="583" type="curve"/>
      <point x="949" y="583"/>
      <point x="982" y="584"/>
      <point x="984" y="604" type="curve"/>
      <point x="984" y="604"/>
      <point x="979" y="620"/>
      <point x="969" y="630" type="curve"/>
      <point x="944" y="651"/>
      <point x="926" y="663"/>
      <point x="847" y="660" type="curve"/>
      <point x="797" y="662"/>
      <point x="697" y="640"/>
      <point x="650" y="623" type="curve"/>
      <point x="637" y="618"/>
      <point x="625" y="600"/>
      <point x="624" y="589" type="curve"/>
      <point x="614" y="565" type="line"/>
      <point x="611" y="571" type="line"/>
      <point x="583" y="623"/>
      <point x="542" y="647"/>
      <point x="490" y="653" type="curve"/>
      <point x="470" y="656"/>
      <point x="434" y="655"/>
      <point x="409" y="631" type="curve"/>
      <point x="364" y="598"/>
      <point x="294" y="540"/>
      <point x="244" y="458" type="curve"/>
      <point x="194" y="347"/>
      <point x="191" y="341"/>
      <point x="154" y="305" type="curve"/>
      <point x="150" y="278"/>
      <point x="145" y="262"/>
      <point x="125" y="230" type="curve"/>
      <point x="108.37410843550921" y="163.49643374203683"/>
      <point x="88" y="88"/>
      <point x="133" y="40" type="curve" smooth="yes"/>
      <point x="165" y="5"/>
      <point x="211" y="-18"/>
      <point x="263" y="-28" type="curve"/>
      <point x="299" y="-27"/>
      <point x="392" y="-10"/>
      <point x="408" y="15" type="curve"/>
      <point x="415" y="20"/>
      <point x="431" y="36"/>
      <point x="438" y="39" type="curve"/>
      <point x="443" y="30"/>
      <point x="456" y="-2"/>
      <point x="466" y="-9" type="curve"/>
      <point x="501" y="-37"/>
      <point x="510" y="-49"/>
    </contour>
    <contour>
      <point x="286" y="64" type="curve"/>
      <point x="273" y="62"/>
      <point x="242" y="64"/>
      <point x="237" y="69" type="curve"/>
      <point x="223" y="82"/>
      <point x="204" y="96"/>
      <point x="203" y="124" type="curve"/>
      <point x="204" y="144"/>
      <point x="211" y="156"/>
      <point x="216" y="180" type="curve"/>
      <point x="231" y="217"/>
      <point x="265" y="321"/>
      <point x="315" y="404" type="curve"/>
      <point x="337" y="448"/>
      <point x="365" y="458"/>
      <point x="374" y="489" type="curve"/>
      <point x="419" y="549"/>
      <point x="458" y="561"/>
      <point x="477" y="555" type="curve"/>
      <point x="513" y="563"/>
      <point x="530" y="535"/>
      <point x="543" y="479" type="curve"/>
      <point x="553" y="465"/>
      <point x="547" y="437"/>
      <point x="547" y="432" type="curve"/>
      <point x="533" y="402" type="line"/>
      <point x="530" y="394"/>
      <point x="521" y="384"/>
      <point x="519" y="379" type="curve"/>
      <point x="519" y="374"/>
      <point x="517" y="370"/>
      <point x="506" y="352" type="curve"/>
      <point x="500" y="338"/>
      <point x="499" y="323"/>
      <point x="499" y="323" type="curve"/>
      <point x="498" y="320"/>
      <point x="492" y="303"/>
      <point x="488" y="300" type="curve"/>
      <point x="480" y="292"/>
      <point x="473" y="257"/>
      <point x="467" y="225" type="curve"/>
      <point x="458" y="206" type="line"/>
      <point x="453" y="200"/>
      <point x="448" y="181"/>
      <point x="444" y="165" type="curve"/>
      <point x="426" y="137"/>
      <point x="412" y="114"/>
      <point x="405" y="109" type="curve"/>
      <point x="392" y="103"/>
      <point x="383" y="85"/>
      <point x="376" y="81" type="curve"/>
      <point x="365" y="78"/>
      <point x="351" y="71"/>
      <point x="351" y="71" type="curve"/>
      <point x="326" y="63"/>
      <point x="307" y="63"/>
    </contour>
  </outline>
</glyph>
<glyph name="dotlessj" format="2">
  <advance width="204"/>
  <unicode hex="0237"/>
  <anchor x="237" y="560" name="top"/>
  <outline>
    <contour>
      <point x="65" y="-209" type="curve"/>
      <point x="82" y="-195"/>
      <point x="135" y="-129"/>
      <point x="145" y="-104" type="curve"/>
      <point x="164" y="-63"/>
      <point x="168" y="-45"/>
      <point x="169" y="-39" type="curve"/>
      <point x="171" y="-26"/>
      <point x="194" y="30"/>
      <point x="196" y="43" type="curve"/>
      <point x="197" y="52"/>
      <point x="206" y="81"/>
      <point x="211" y="101" type="curve"/>
      <point x="220" y="137"/>
      <point x="240" y="230"/>
      <point x="240" y="247" type="curve"/>
      <point x="250" y="330"/>
      <point x="235" y="340"/>
      <point x="220" y="357" type="curve"/>
      <point x="210" y="367"/>
      <point x="177" y="379"/>
      <point x="172" y="374" type="curve"/>
      <point x="172" y="369"/>
      <point x="163" y="337"/>
      <point x="163" y="317" type="curve"/>
      <point x="156" y="303"/>
      <point x="156" y="283"/>
      <point x="156" y="278" type="curve"/>
      <point x="156" y="273"/>
      <point x="146" y="244"/>
      <point x="141" y="208" type="curve"/>
      <point x="127" y="142"/>
      <point x="121" y="88"/>
      <point x="105" y="33" type="curve"/>
      <point x="90" y="-6"/>
      <point x="59" y="-91"/>
      <point x="40" y="-116" type="curve"/>
      <point x="25" y="-140"/>
      <point x="9" y="-148"/>
      <point x="-5" y="-143" type="curve"/>
      <point x="-22" y="-141"/>
      <point x="-24" y="-124"/>
      <point x="-24" y="-104" type="curve"/>
      <point x="-24" y="-89"/>
      <point x="-55" y="-76"/>
      <point x="-64" y="-76" type="curve"/>
      <point x="-97" y="-76"/>
      <point x="-97" y="-142"/>
      <point x="-50" y="-205" type="curve"/>
      <point x="-18" y="-239"/>
      <point x="36" y="-239"/>
    </contour>
  </outline>
</glyph>
<glyph name="ogonek" format="2">
  <advance width="353"/>
  <unicode hex="02DB"/>
  <outline>
    <contour>
      <point x="103" y="-177" type="curve"/>
      <point x="133" y="-173"/>
      <point x="212" y="-134"/>
      <point x="224" y="-130" type="curve"/>
      <point x="255" y="-116"/>
      <point x="249" y="-52"/>
      <point x="215" y="-70" type="curve"/>
      <point x="182" y="-86"/>
      <point x="165" y="-101"/>
      <point x="135" y="-106" type="curve"/>
      <point x="123" y="-106"/>
      <point x="120" y="-106"/>
      <point x="117" y="-100" type="curve"/>
      <point x="108" y="-85"/>
      <point x="116" y="-73"/>
      <point x="135" y="-50" type="curve"/>
      <point x="159" y="-21"/>
      <point x="206" y="18"/>
      <point x="236" y="36" type="curve"/>
      <point x="181" y="66" type="line"/>
      <point x="137" y="37"/>
      <point x="72" y="-16"/>
      <point x="47" y="-60" type="curve"/>
      <point x="11" y="-121"/>
      <point x="63" y="-166"/>
    </contour>
  </outline>
</glyph>
<glyph name="breveinvertedcomb" format="2">
  <advance width="353"/>
  <unicode hex="0311"/>
  <anchor x="381" y="560" name="_top"/>
  <anchor x="383" y="753" name="top"/>
  <outline>
    <contour>
      <point x="400" y="477" type="curve"/>
      <point x="388" y="432"/>
      <point x="456" y="401"/>
      <point x="476" y="483" type="curve"/>
      <point x="490" y="542"/>
      <point x="438" y="596"/>
      <point x="373" y="601" type="curve"/>
      <point x="300" y="607"/>
      <point x="232" y="514"/>
      <point x="225" y="489" type="curve"/>
      <point x="220" y="470"/>
      <point x="243" y="386"/>
      <point x="292" y="479" type="curve"/>
      <point x="303" y="500"/>
      <point x="332" y="530"/>
      <point x="358" y="531" type="curve"/>
      <point x="418" y="533"/>
      <point x="406" y="500"/>
    </contour>
  </outline>
</glyph>
<glyph name="commaaccentcomb" format="2">
  <unicode hex="0326"/>
  <anchor x="258" y="-110" name="_bottom"/>
  <outline>
    <contour>
      <point x="69" y="-192" type="curve"/>
      <point x="106" y="-192"/>
      <point x="102" y="-181"/>
      <point x="111" y="-181" type="curve"/>
      <point x="117" y="-181"/>
      <point x="159" y="-140"/>
      <point x="163" y="-130" type="curve"/>
      <point x="174" y="-110"/>
      <point x="180" y="-97"/>
      <point x="180" y="-82" type="curve"/>
      <point x="180" y="-41"/>
      <point x="160" y="-28"/>
      <point x="148" y="-28" type="curve"/>
      <point x="125" y="-28"/>
      <point x="113" y="-43"/>
      <point x="113" y="-64" type="curve"/>
      <point x="104" y="-97"/>
      <point x="90" y="-134"/>
      <point x="55" y="-160" type="curve"/>
      <point x="46" y="-168"/>
      <point x="41" y="-173"/>
      <point x="41" y="-179" type="curve"/>
      <point x="44" y="-185"/>
      <point x="55" y="-192"/>
    </contour>
  </outline>
</glyph>
<glyph name="Dzhe-cy" format="2">
  <advance width="571"/>
  <unicode hex="040F"/>
  <outline>
    <contour>
      <point x="697" y="665" type="curve"/>
      <point x="688" y="667"/>
      <point x="678" y="670"/>
      <point x="669" y="672" type="curve"/>
      <point x="656" y="666"/>
      <point x="648" y="655"/>
      <point x="643" y="641" type="curve"/>
      <point x="605" y="533" type="line" smooth="yes"/>
      <point x="596" y="506"/>
      <point x="582" y="482"/>
      <point x="579" y="457" type="curve"/>
      <point x="576" y="452"/>
      <point x="570" y="436"/>
      <point x="564" y="416" type="curve" smooth="yes"/>
      <point x="553" y="383"/>
      <point x="539" y="339"/>
      <point x="533" y="321" type="curve"/>
      <point x="529" y="311"/>
      <point x="509" y="254"/>
      <point x="495" y="214" type="curve" smooth="yes"/>
      <point x="489" y="196"/>
      <point x="484" y="182"/>
      <point x="482" y="176" type="curve"/>
      <point x="475" y="136"/>
      <point x="456" y="97"/>
      <point x="448" y="54" type="curve"/>
      <point x="449" y="61"/>
      <point x="412" y="59"/>
      <point x="402" y="55" type="curve"/>
      <point x="317" y="55" type="line"/>
      <point x="288.362" y="54.667"/>
      <point x="257" y="54"/>
      <point x="231" y="54" type="curve"/>
      <point x="237" y="84"/>
      <point x="244" y="113"/>
      <point x="250" y="143" type="curve"/>
      <point x="261" y="193"/>
      <point x="272" y="243"/>
      <point x="283" y="293" type="curve"/>
      <point x="293" y="329"/>
      <point x="307" y="364"/>
      <point x="321" y="399" type="curve"/>
      <point x="344" y="451"/>
      <point x="366" y="502"/>
      <point x="389" y="554" type="curve"/>
      <point x="411" y="604"/>
      <point x="404" y="627"/>
      <point x="357" y="647" type="curve"/>
      <point x="340" y="653"/>
      <point x="321" y="645"/>
      <point x="315" y="628" type="curve"/>
      <point x="311" y="611"/>
      <point x="298" y="595"/>
      <point x="291" y="572" type="curve"/>
      <point x="288" y="564"/>
      <point x="284" y="556"/>
      <point x="281" y="548" type="curve"/>
      <point x="274" y="531.0"/>
      <point x="268.0" y="516.0"/>
      <point x="261" y="503" type="curve"/>
      <point x="254" y="488"/>
      <point x="247" y="472"/>
      <point x="240" y="457" type="curve"/>
      <point x="193" y="318" type="line"/>
      <point x="183" y="294"/>
      <point x="153" y="203"/>
      <point x="152" y="172" type="curve"/>
      <point x="150" y="163"/>
      <point x="149" y="154"/>
      <point x="147" y="145" type="curve"/>
      <point x="141" y="131"/>
      <point x="141" y="116"/>
      <point x="139" y="102" type="curve" smooth="yes"/>
      <point x="138" y="93"/>
      <point x="134" y="70"/>
      <point x="132" y="34" type="curve" smooth="yes"/>
      <point x="131" y="18"/>
      <point x="140" y="1"/>
      <point x="153" y="-8" type="curve" smooth="yes"/>
      <point x="167" y="-18"/>
      <point x="173" y="-29"/>
      <point x="195" y="-27" type="curve"/>
      <point x="195" y="-27"/>
      <point x="203" y="-28"/>
      <point x="215" y="-28" type="curve" smooth="yes"/>
      <point x="234" y="-30"/>
      <point x="263" y="-32"/>
      <point x="281" y="-34" type="curve"/>
      <point x="279" y="-54"/>
      <point x="270" y="-67"/>
      <point x="269" y="-75" type="curve"/>
      <point x="268" y="-76"/>
      <point x="263" y="-86"/>
      <point x="258" y="-99" type="curve" smooth="yes"/>
      <point x="254" y="-109"/>
      <point x="250" y="-121"/>
      <point x="247" y="-131" type="curve" smooth="yes"/>
      <point x="245" y="-141"/>
      <point x="244" y="-149"/>
      <point x="246" y="-154" type="curve"/>
      <point x="247" y="-170"/>
      <point x="274" y="-182"/>
      <point x="320" y="-175" type="curve"/>
      <point x="323" y="-171"/>
      <point x="344" y="-155"/>
      <point x="374" y="-75" type="curve"/>
      <point x="385" y="-35" type="line"/>
      <point x="412" y="-26"/>
      <point x="439" y="-24"/>
      <point x="458" y="-26" type="curve" smooth="yes"/>
      <point x="475" y="-28"/>
      <point x="490" y="-22"/>
      <point x="503" y="-20" type="curve"/>
      <point x="512" y="-18"/>
      <point x="520" y="-10"/>
      <point x="526" y="0" type="curve" smooth="yes"/>
      <point x="538" y="19"/>
      <point x="545" y="48"/>
      <point x="548" y="73" type="curve"/>
      <point x="554" y="82"/>
      <point x="561" y="90"/>
      <point x="561" y="110" type="curve" smooth="yes"/>
      <point x="561" y="111"/>
      <point x="573" y="147"/>
      <point x="582" y="177" type="curve" smooth="yes"/>
      <point x="589" y="198"/>
      <point x="594" y="215"/>
      <point x="594" y="215" type="curve"/>
      <point x="605" y="244"/>
      <point x="616" y="274"/>
      <point x="626" y="305" type="curve" smooth="yes"/>
      <point x="636" y="336"/>
      <point x="680" y="468"/>
      <point x="690" y="497" type="curve"/>
      <point x="706" y="534"/>
      <point x="722" y="574"/>
      <point x="737" y="612" type="curve"/>
      <point x="742" y="640"/>
      <point x="726" y="658"/>
    </contour>
  </outline>
</glyph>
<glyph name="Pe-cy" format="2">
  <advance width="604"/>
  <unicode hex="041F"/>
  <outline>
    <contour>
      <point x="132" y="-39" type="curve" smooth="yes"/>
      <point x="154" y="-40"/>
      <point x="164" y="-30"/>
      <point x="173" y="-10" type="curve"/>
      <point x="175" y="2"/>
      <point x="178" y="13"/>
      <point x="180" y="25" type="curve" smooth="yes"/>
      <point x="187" y="58"/>
      <point x="194" y="79"/>
      <point x="202" y="104" type="curve" smooth="yes"/>
      <point x="214" y="139"/>
      <point x="229" y="181"/>
      <point x="255" y="267" type="curve"/>
      <point x="272" y="311"/>
      <point x="289" y="356"/>
      <point x="306" y="400" type="curve"/>
      <point x="330" y="456"/>
      <point x="369" y="545"/>
      <point x="378" y="567" type="curve"/>
      <point x="381" y="567"/>
      <point x="387" y="568"/>
      <point x="395" y="569" type="curve" smooth="yes"/>
      <point x="423" y="573"/>
      <point x="478" y="582"/>
      <point x="506" y="585" type="curve" smooth="yes"/>
      <point x="561" y="592"/>
      <point x="571" y="597"/>
      <point x="617" y="602" type="curve"/>
      <point x="612" y="601"/>
      <point x="594" y="549"/>
      <point x="587" y="523" type="curve" smooth="yes"/>
      <point x="579" y="489"/>
      <point x="571" y="456"/>
      <point x="558" y="424" type="curve" smooth="yes"/>
      <point x="537" y="365"/>
      <point x="541" y="347"/>
      <point x="524" y="297" type="curve"/>
      <point x="504" y="225" type="line"/>
      <point x="501" y="229"/>
      <point x="490" y="192"/>
      <point x="482" y="154" type="curve" smooth="yes"/>
      <point x="476" y="119"/>
      <point x="469" y="80"/>
      <point x="466" y="42" type="curve"/>
      <point x="464" y="31"/>
      <point x="468" y="20"/>
      <point x="478" y="2" type="curve"/>
      <point x="491" y="-15"/>
      <point x="532" y="-15"/>
      <point x="549" y="0" type="curve"/>
      <point x="554" y="1"/>
      <point x="561" y="10"/>
      <point x="557" y="22" type="curve"/>
      <point x="558" y="48"/>
      <point x="564" y="75"/>
      <point x="566" y="104" type="curve"/>
      <point x="565" y="96"/>
      <point x="605" y="238"/>
      <point x="634" y="338" type="curve" smooth="yes"/>
      <point x="649" y="391"/>
      <point x="660" y="432"/>
      <point x="661" y="433" type="curve"/>
      <point x="661" y="454"/>
      <point x="693" y="551"/>
      <point x="705" y="566" type="curve"/>
      <point x="724" y="610"/>
      <point x="709" y="592"/>
      <point x="727" y="620" type="curve"/>
      <point x="759" y="604"/>
      <point x="768" y="606"/>
      <point x="776" y="630" type="curve"/>
      <point x="782" y="658"/>
      <point x="759" y="688"/>
      <point x="730" y="693" type="curve" smooth="yes"/>
      <point x="716" y="696"/>
      <point x="699" y="699"/>
      <point x="683" y="697" type="curve" smooth="yes"/>
      <point x="596" y="687"/>
      <point x="434" y="666"/>
      <point x="419" y="658" type="curve"/>
      <point x="418" y="657"/>
      <point x="346" y="658"/>
      <point x="319" y="665" type="curve"/>
      <point x="295" y="670"/>
      <point x="280" y="657"/>
      <point x="275" y="639" type="curve" smooth="yes"/>
      <point x="272" y="628"/>
      <point x="274" y="614"/>
      <point x="281" y="603" type="curve"/>
      <point x="273" y="572"/>
      <point x="262" y="546"/>
      <point x="247" y="516" type="curve"/>
      <point x="247" y="515"/>
      <point x="212" y="412"/>
      <point x="212" y="412" type="curve"/>
      <point x="197" y="371"/>
      <point x="190" y="353"/>
      <point x="174" y="307" type="curve" smooth="yes"/>
      <point x="155" y="260"/>
      <point x="127" y="167"/>
      <point x="112" y="119" type="curve" smooth="yes"/>
      <point x="105" y="97"/>
      <point x="102" y="85"/>
      <point x="98" y="69" type="curve"/>
      <point x="95" y="51"/>
      <point x="85" y="35"/>
      <point x="77" y="7" type="curve"/>
      <point x="77" y="-24"/>
      <point x="93" y="-37"/>
    </contour>
  </outline>
</glyph>
<glyph name="ge-cy" format="2">
  <advance width="307"/>
  <unicode hex="0433"/>
  <anchor x="349" y="560" name="top"/>
  <outline>
    <contour>
      <point x="78" y="23" type="curve"/>
      <point x="80" y="1"/>
      <point x="85" y="-12"/>
      <point x="107" y="-14" type="curve" smooth="yes"/>
      <point x="120" y="-15"/>
      <point x="136" y="-13"/>
      <point x="146" y="-7" type="curve"/>
      <point x="151" y="1"/>
      <point x="156" y="17"/>
      <point x="171" y="61" type="curve" smooth="yes"/>
      <point x="178" y="84"/>
      <point x="188" y="113"/>
      <point x="201" y="153" type="curve" smooth="yes"/>
      <point x="209" y="177"/>
      <point x="218" y="205"/>
      <point x="229" y="237" type="curve"/>
      <point x="235" y="254"/>
      <point x="239" y="280"/>
      <point x="247" y="297" type="curve"/>
      <point x="260" y="302"/>
      <point x="281" y="300"/>
      <point x="301" y="307" type="curve" smooth="yes"/>
      <point x="326" y="316"/>
      <point x="385" y="315"/>
      <point x="397" y="315" type="curve"/>
      <point x="418" y="317"/>
      <point x="423" y="332"/>
      <point x="421" y="356" type="curve"/>
      <point x="402" y="380"/>
      <point x="381" y="393"/>
      <point x="364" y="393" type="curve"/>
      <point x="338" y="396"/>
      <point x="328" y="393"/>
      <point x="302" y="391" type="curve"/>
      <point x="284" y="383"/>
      <point x="239" y="378"/>
      <point x="219" y="373" type="curve"/>
      <point x="200" y="383"/>
      <point x="186" y="378"/>
      <point x="174" y="367" type="curve"/>
      <point x="171" y="360"/>
      <point x="154" y="343"/>
      <point x="159" y="315" type="curve"/>
      <point x="159" y="305"/>
      <point x="159" y="303"/>
      <point x="158" y="301" type="curve"/>
      <point x="141" y="253"/>
      <point x="121" y="191"/>
      <point x="103" y="136" type="curve"/>
      <point x="95" y="116"/>
      <point x="76" y="49"/>
    </contour>
  </outline>
</glyph>
<glyph name="softsign-cy" format="2">
  <advance width="348"/>
  <unicode hex="044C"/>
  <outline>
    <contour>
      <point x="97" y="81" type="curve" smooth="yes"/>
      <point x="98" y="67"/>
      <point x="103" y="55"/>
      <point x="110" y="45" type="curve"/>
      <point x="129" y="21"/>
      <point x="144" y="10"/>
      <point x="164" y="7" type="curve" smooth="yes"/>
      <point x="168" y="6"/>
      <point x="172" y="6"/>
      <point x="177" y="6" type="curve"/>
      <point x="242" y="5"/>
      <point x="283" y="17"/>
      <point x="334" y="47" type="curve" smooth="yes"/>
      <point x="360" y="64"/>
      <point x="390" y="93"/>
      <point x="396" y="126" type="curve"/>
      <point x="397" y="130"/>
      <point x="398" y="134"/>
      <point x="398" y="138" type="curve" smooth="yes"/>
      <point x="399" y="155"/>
      <point x="390" y="173"/>
      <point x="386" y="179" type="curve"/>
      <point x="377" y="206"/>
      <point x="357" y="220"/>
      <point x="344" y="234" type="curve"/>
      <point x="330" y="248"/>
      <point x="286" y="270"/>
      <point x="260" y="269" type="curve"/>
      <point x="259" y="269"/>
      <point x="258" y="269"/>
      <point x="256" y="270" type="curve"/>
      <point x="269" y="288"/>
      <point x="276" y="298"/>
      <point x="291" y="317" type="curve"/>
      <point x="298" y="327"/>
      <point x="313" y="340"/>
      <point x="313" y="364" type="curve"/>
      <point x="307" y="386"/>
      <point x="292" y="395"/>
      <point x="288" y="400" type="curve"/>
      <point x="274" y="416"/>
      <point x="259" y="415"/>
      <point x="251" y="417" type="curve"/>
      <point x="234" y="412"/>
      <point x="223" y="399"/>
      <point x="212" y="366" type="curve"/>
      <point x="194" y="348"/>
      <point x="161" y="289"/>
      <point x="156" y="270" type="curve"/>
      <point x="152" y="260"/>
      <point x="138" y="247"/>
      <point x="137" y="225" type="curve"/>
      <point x="117" y="191"/>
      <point x="94" y="119"/>
    </contour>
    <contour>
      <point x="190" y="98" type="curve"/>
      <point x="189" y="108"/>
      <point x="192" y="116"/>
      <point x="194" y="121" type="curve"/>
      <point x="200" y="138"/>
      <point x="204" y="163"/>
      <point x="210" y="174" type="curve"/>
      <point x="212" y="176"/>
      <point x="215" y="179"/>
      <point x="215" y="181" type="curve"/>
      <point x="220" y="189"/>
      <point x="222" y="192"/>
      <point x="221" y="197" type="curve"/>
      <point x="231" y="200"/>
      <point x="241" y="206"/>
      <point x="260" y="201" type="curve"/>
      <point x="264" y="200"/>
      <point x="269" y="197"/>
      <point x="273" y="198" type="curve"/>
      <point x="288" y="198"/>
      <point x="297" y="193"/>
      <point x="311" y="183" type="curve"/>
      <point x="320" y="177"/>
      <point x="315" y="167"/>
      <point x="310" y="156" type="curve"/>
      <point x="291" y="127"/>
      <point x="262" y="119"/>
      <point x="241" y="108" type="curve"/>
      <point x="221" y="103"/>
      <point x="212" y="101"/>
    </contour>
  </outline>
</glyph>
<glyph name="Ghestroke-cy" format="2">
  <advance width="514"/>
  <unicode hex="0492"/>
  <outline>
    <contour>
      <point x="185" y="254" type="curve"/>
      <point x="200" y="251"/>
      <point x="212" y="253"/>
      <point x="220" y="254" type="curve"/>
      <point x="258" y="259"/>
      <point x="373" y="275"/>
      <point x="388" y="278" type="curve"/>
      <point x="411" y="283"/>
      <point x="480" y="291"/>
      <point x="489" y="294" type="curve"/>
      <point x="520" y="293"/>
      <point x="530" y="325"/>
      <point x="507" y="342" type="curve"/>
      <point x="490" y="353"/>
      <point x="461" y="355"/>
      <point x="427" y="351" type="curve"/>
      <point x="373" y="343"/>
      <point x="235" y="328"/>
      <point x="192" y="311" type="curve"/>
      <point x="144" y="300"/>
      <point x="128" y="286"/>
      <point x="146" y="269" type="curve"/>
      <point x="152" y="260"/>
      <point x="165" y="251"/>
    </contour>
    <component base="Ge-cy" xOffset="51"/>
  </outline>
</glyph>
<glyph name="zhedescender-cy" format="2">
  <advance width="504"/>
  <unicode hex="0497"/>
  <outline>
    <contour>
      <point x="337" y="130" type="curve"/>
      <point x="346" y="110"/>
      <point x="351" y="86"/>
      <point x="361" y="66" type="curve"/>
      <point x="365" y="61"/>
      <point x="366" y="49"/>
      <point x="375" y="40" type="curve"/>
      <point x="385" y="7" type="line"/>
      <point x="381" y="5"/>
      <point x="375" y="-1"/>
      <point x="366" y="-9" type="curve" smooth="yes"/>
      <point x="344" y="-31"/>
      <point x="311" y="-71"/>
      <point x="304" y="-89" type="curve"/>
      <point x="296" y="-97"/>
      <point x="294" y="-105"/>
      <point x="292" y="-128" type="curve"/>
      <point x="289" y="-140"/>
      <point x="291" y="-155"/>
      <point x="298" y="-172" type="curve" smooth="yes"/>
      <point x="304" y="-188"/>
      <point x="314" y="-200"/>
      <point x="335" y="-216" type="curve"/>
      <point x="341" y="-221"/>
      <point x="357" y="-224"/>
      <point x="360" y="-225" type="curve"/>
      <point x="370" y="-230"/>
      <point x="391" y="-229"/>
      <point x="396" y="-231" type="curve"/>
      <point x="417" y="-225"/>
      <point x="436" y="-218"/>
      <point x="449" y="-211" type="curve" smooth="yes"/>
      <point x="455" y="-208"/>
      <point x="459" y="-205"/>
      <point x="461" y="-202" type="curve"/>
      <point x="481" y="-180"/>
      <point x="490" y="-170"/>
      <point x="491" y="-147" type="curve" smooth="yes"/>
      <point x="492" y="-93"/>
      <point x="486" y="-53"/>
      <point x="483" y="-36" type="curve"/>
      <point x="504" y="-27"/>
      <point x="511" y="-19"/>
      <point x="528" y="-10" type="curve"/>
      <point x="538" y="-1"/>
      <point x="543" y="12"/>
      <point x="541" y="25" type="curve"/>
      <point x="536" y="38"/>
      <point x="531" y="45"/>
      <point x="520" y="51" type="curve" smooth="yes"/>
      <point x="504" y="59"/>
      <point x="485" y="59"/>
      <point x="470" y="50" type="curve"/>
      <point x="466" y="49"/>
      <point x="462" y="48"/>
      <point x="458" y="47" type="curve"/>
      <point x="453" y="55"/>
      <point x="449" y="62"/>
      <point x="446" y="68" type="curve"/>
      <point x="432" y="102"/>
      <point x="415" y="137"/>
      <point x="402" y="159" type="curve"/>
      <point x="406" y="163"/>
      <point x="411" y="167"/>
      <point x="417" y="171" type="curve" smooth="yes"/>
      <point x="428" y="179"/>
      <point x="440" y="189"/>
      <point x="450" y="197" type="curve" smooth="yes"/>
      <point x="493" y="235"/>
      <point x="558" y="289"/>
      <point x="580" y="341" type="curve" smooth="yes"/>
      <point x="587" y="357"/>
      <point x="582" y="372"/>
      <point x="567" y="384" type="curve"/>
      <point x="553" y="394"/>
      <point x="546" y="391"/>
      <point x="538" y="391" type="curve" smooth="yes"/>
      <point x="529" y="391"/>
      <point x="524" y="391"/>
      <point x="518" y="390" type="curve"/>
      <point x="515" y="388"/>
      <point x="513" y="385"/>
      <point x="510" y="383" type="curve"/>
      <point x="507" y="376"/>
      <point x="504" y="363"/>
      <point x="496" y="352" type="curve"/>
      <point x="461" y="314"/>
      <point x="399" y="247"/>
      <point x="391" y="239" type="curve"/>
      <point x="385" y="232"/>
      <point x="379" y="227"/>
      <point x="373" y="222" type="curve"/>
      <point x="369" y="219" type="line"/>
      <point x="390" y="275"/>
      <point x="402" y="306"/>
      <point x="414" y="333" type="curve" smooth="yes"/>
      <point x="423" y="353"/>
      <point x="418" y="368"/>
      <point x="413" y="383" type="curve" smooth="yes"/>
      <point x="396" y="407"/>
      <point x="385" y="417"/>
      <point x="359" y="415" type="curve"/>
      <point x="350" y="411"/>
      <point x="341" y="406"/>
      <point x="336" y="384" type="curve"/>
      <point x="335" y="383"/>
      <point x="334" y="378"/>
      <point x="332" y="373" type="curve"/>
      <point x="337" y="388"/>
      <point x="289" y="255"/>
      <point x="284" y="242" type="curve"/>
      <point x="283" y="243"/>
      <point x="282" y="245"/>
      <point x="281" y="246" type="curve"/>
      <point x="279" y="248"/>
      <point x="263" y="287"/>
      <point x="247" y="340" type="curve"/>
      <point x="242" y="346"/>
      <point x="241" y="351"/>
      <point x="241" y="364" type="curve"/>
      <point x="240" y="365"/>
      <point x="235" y="380"/>
      <point x="225" y="387" type="curve"/>
      <point x="214" y="393"/>
      <point x="196" y="400"/>
      <point x="179" y="406" type="curve"/>
      <point x="176" y="406"/>
      <point x="173" y="405"/>
      <point x="170" y="405" type="curve"/>
      <point x="157" y="397"/>
      <point x="153" y="374"/>
      <point x="161" y="355" type="curve"/>
      <point x="160" y="357"/>
      <point x="164" y="340"/>
      <point x="167" y="329" type="curve"/>
      <point x="174" y="313"/>
      <point x="180" y="295"/>
      <point x="188" y="280" type="curve"/>
      <point x="200" y="255"/>
      <point x="205" y="246"/>
      <point x="222" y="218" type="curve"/>
      <point x="193" y="189"/>
      <point x="112" y="110"/>
      <point x="101" y="100" type="curve" smooth="yes"/>
      <point x="81" y="82"/>
      <point x="48" y="51"/>
      <point x="42" y="46" type="curve"/>
      <point x="41" y="42"/>
      <point x="40" y="39"/>
      <point x="39" y="35" type="curve"/>
      <point x="43" y="10"/>
      <point x="51" y="0"/>
      <point x="74" y="-11" type="curve"/>
      <point x="102" y="-11" type="line"/>
      <point x="125" y="9"/>
      <point x="144" y="26"/>
      <point x="157" y="46" type="curve"/>
      <point x="165" y="55"/>
      <point x="215" y="100"/>
      <point x="250" y="134" type="curve"/>
      <point x="233" y="94"/>
      <point x="218" y="53"/>
      <point x="219" y="34" type="curve"/>
      <point x="219" y="27"/>
      <point x="219" y="19"/>
      <point x="219" y="12" type="curve"/>
      <point x="227" y="-2"/>
      <point x="242" y="-11"/>
      <point x="268" y="-17" type="curve"/>
      <point x="275" y="-20"/>
      <point x="285" y="-20"/>
      <point x="293" y="-8" type="curve"/>
      <point x="304" y="4"/>
      <point x="306" y="16"/>
      <point x="302" y="28" type="curve"/>
      <point x="314" y="84"/>
      <point x="324" y="93"/>
      <point x="336" y="127" type="curve" smooth="yes"/>
      <point x="336" y="128"/>
      <point x="337" y="129"/>
    </contour>
    <contour>
      <point x="425" y="-56" type="curve"/>
      <point x="425" y="-65"/>
      <point x="426" y="-72"/>
      <point x="427" y="-78" type="curve"/>
      <point x="426" y="-85"/>
      <point x="428" y="-97"/>
      <point x="428" y="-105" type="curve"/>
      <point x="423" y="-123"/>
      <point x="419" y="-150"/>
      <point x="399" y="-162" type="curve"/>
      <point x="395" y="-164"/>
      <point x="391" y="-166"/>
      <point x="387" y="-170" type="curve"/>
      <point x="368" y="-170" type="line"/>
      <point x="358" y="-165"/>
      <point x="358" y="-162"/>
      <point x="358" y="-154" type="curve"/>
      <point x="358" y="-150"/>
      <point x="358" y="-146"/>
      <point x="357" y="-141" type="curve"/>
      <point x="363" y="-130"/>
      <point x="368" y="-114"/>
      <point x="374" y="-106" type="curve"/>
      <point x="388" y="-93"/>
      <point x="390" y="-88"/>
      <point x="402" y="-79" type="curve"/>
      <point x="408" y="-74"/>
      <point x="416" y="-62"/>
    </contour>
  </outline>
</glyph>
<glyph name="kaverticalstroke-cy" format="2">
  <advance width="441"/>
  <unicode hex="049D"/>
  <outline>
    <contour>
      <point x="437" y="64" type="curve"/>
      <point x="426" y="76"/>
      <point x="412" y="86"/>
      <point x="405" y="100" type="curve" smooth="yes"/>
      <point x="399" y="113"/>
      <point x="397" y="129"/>
      <point x="392" y="143" type="curve"/>
      <point x="389" y="150"/>
      <point x="392" y="159"/>
      <point x="390" y="167" type="curve"/>
      <point x="397" y="172"/>
      <point x="404" y="179"/>
      <point x="410" y="184" type="curve"/>
      <point x="427" y="200"/>
      <point x="446" y="213"/>
      <point x="460" y="232" type="curve" smooth="yes"/>
      <point x="482" y="261"/>
      <point x="504" y="290"/>
      <point x="525" y="320" type="curve"/>
      <point x="527" y="328"/>
      <point x="526" y="351"/>
      <point x="523" y="354" type="curve"/>
      <point x="515" y="364"/>
      <point x="507" y="373"/>
      <point x="498" y="381" type="curve"/>
      <point x="488" y="391"/>
      <point x="469" y="386"/>
      <point x="455" y="384" type="curve"/>
      <point x="429" y="340" type="line"/>
      <point x="420" y="327"/>
      <point x="415" y="320"/>
      <point x="403" y="307" type="curve"/>
      <point x="387" y="286"/>
      <point x="373" y="264"/>
      <point x="351" y="249" type="curve"/>
      <point x="334" y="239" type="line"/>
      <point x="338" y="250"/>
      <point x="341" y="260"/>
      <point x="342" y="265" type="curve"/>
      <point x="358" y="290"/>
      <point x="339" y="302"/>
      <point x="315" y="295" type="curve" smooth="yes"/>
      <point x="297" y="290"/>
      <point x="295" y="281"/>
      <point x="282" y="253" type="curve" smooth="yes"/>
      <point x="275" y="237"/>
      <point x="269" y="224"/>
      <point x="264" y="211" type="curve"/>
      <point x="254" y="208"/>
      <point x="245" y="205"/>
      <point x="236" y="203" type="curve" smooth="yes"/>
      <point x="234" y="203"/>
      <point x="232" y="202"/>
      <point x="230" y="202" type="curve"/>
      <point x="231" y="203"/>
      <point x="231" y="205"/>
      <point x="232" y="206" type="curve"/>
      <point x="242" y="230"/>
      <point x="252" y="254"/>
      <point x="263" y="278" type="curve" smooth="yes"/>
      <point x="270" y="294"/>
      <point x="280" y="308"/>
      <point x="288" y="324" type="curve"/>
      <point x="297" y="339"/>
      <point x="310" y="368"/>
      <point x="305" y="371" type="curve"/>
      <point x="293" y="386"/>
      <point x="280" y="399"/>
      <point x="266" y="412" type="curve"/>
      <point x="254" y="424"/>
      <point x="232" y="405"/>
      <point x="221" y="392" type="curve"/>
      <point x="213" y="383"/>
      <point x="212" y="370"/>
      <point x="207" y="360" type="curve" smooth="yes"/>
      <point x="195" y="336"/>
      <point x="179" y="310"/>
      <point x="169" y="288" type="curve" smooth="yes"/>
      <point x="164" y="278"/>
      <point x="160" y="267"/>
      <point x="156" y="256" type="curve" smooth="yes"/>
      <point x="151" y="244"/>
      <point x="147" y="232"/>
      <point x="143" y="220" type="curve" smooth="yes"/>
      <point x="139" y="204"/>
      <point x="134" y="189"/>
      <point x="129" y="173" type="curve" smooth="yes"/>
      <point x="117" y="134"/>
      <point x="117" y="127"/>
      <point x="110" y="104" type="curve" smooth="yes"/>
      <point x="104" y="83"/>
      <point x="99" y="61"/>
      <point x="96" y="41" type="curve"/>
      <point x="113" y="25"/>
      <point x="127" y="13"/>
      <point x="148" y="-5" type="curve"/>
      <point x="162" y="1"/>
      <point x="163" y="2"/>
      <point x="177" y="9" type="curve"/>
      <point x="182" y="23"/>
      <point x="187" y="47"/>
      <point x="189" y="65" type="curve"/>
      <point x="197" y="92"/>
      <point x="207" y="120"/>
      <point x="211" y="148" type="curve"/>
      <point x="221" y="148"/>
      <point x="233" y="149"/>
      <point x="245" y="152" type="curve"/>
      <point x="243" y="146"/>
      <point x="242" y="140"/>
      <point x="240" y="134" type="curve" smooth="yes"/>
      <point x="225" y="91"/>
      <point x="227" y="82"/>
      <point x="249" y="84" type="curve"/>
      <point x="260" y="86"/>
      <point x="264" y="88"/>
      <point x="272" y="106" type="curve"/>
      <point x="281" y="115"/>
      <point x="286" y="126"/>
      <point x="289" y="133" type="curve"/>
      <point x="294" y="143"/>
      <point x="298" y="154"/>
      <point x="302" y="164" type="curve"/>
      <point x="322" y="166" type="line"/>
      <point x="319" y="149"/>
      <point x="315" y="122"/>
      <point x="316" y="116" type="curve"/>
      <point x="321" y="101"/>
      <point x="321" y="83"/>
      <point x="333" y="72" type="curve"/>
      <point x="358" y="47"/>
      <point x="363" y="20"/>
      <point x="411" y="-3" type="curve" smooth="yes"/>
      <point x="422" y="-8"/>
      <point x="431" y="-12"/>
      <point x="447" y="-17" type="curve"/>
      <point x="451" y="-16"/>
      <point x="454" y="-15"/>
      <point x="458" y="-14" type="curve"/>
      <point x="468" y="-3"/>
      <point x="476" y="9"/>
      <point x="486" y="20" type="curve"/>
      <point x="493" y="27"/>
      <point x="484" y="42"/>
      <point x="473" y="57" type="curve"/>
      <point x="467" y="67"/>
      <point x="450" y="66"/>
    </contour>
  </outline>
</glyph>
<glyph name="Haabkhasian-cy" format="2">
  <advance width="725"/>
  <unicode hex="04A8"/>
  <outline>
    <contour>
      <point x="752" y="525" type="curve"/>
      <point x="744" y="552"/>
      <point x="717" y="578"/>
      <point x="690" y="585" type="curve"/>
      <point x="664" y="589"/>
      <point x="641" y="590.0"/>
      <point x="623" y="586" type="curve"/>
      <point x="609" y="581"/>
      <point x="598.0" y="573.0"/>
      <point x="600" y="573" type="curve"/>
      <point x="566" y="562"/>
      <point x="538.0" y="542.0"/>
      <point x="506" y="476" type="curve"/>
      <point x="494" y="459"/>
      <point x="464" y="373"/>
      <point x="462" y="350" type="curve"/>
      <point x="456" y="329"/>
      <point x="442" y="262"/>
      <point x="444" y="237" type="curve"/>
      <point x="439" y="210"/>
      <point x="455" y="144"/>
      <point x="462" y="127" type="curve" smooth="yes"/>
      <point x="465" y="120"/>
      <point x="468" y="109"/>
      <point x="474" y="98" type="curve"/>
      <point x="442" y="87"/>
      <point x="379.4559962546825" y="73.0"/>
      <point x="389" y="73" type="curve"/>
      <point x="352" y="62"/>
      <point x="338" y="76"/>
      <point x="303" y="79" type="curve"/>
      <point x="239" y="106"/>
      <point x="229.0" y="191"/>
      <point x="240" y="245" type="curve"/>
      <point x="245" y="275"/>
      <point x="246" y="283"/>
      <point x="251" y="301" type="curve"/>
      <point x="262" y="331"/>
      <point x="264" y="360"/>
      <point x="281" y="384" type="curve"/>
      <point x="307" y="471"/>
      <point x="388" y="565"/>
      <point x="444" y="588" type="curve"/>
      <point x="450.70710678118655" y="594.7071067811866"/>
      <point x="462.59687576256715" y="602.0"/>
      <point x="470" y="602" type="curve"/>
      <point x="478" y="610"/>
      <point x="519" y="613"/>
      <point x="544" y="607" type="curve" smooth="yes"/>
      <point x="561" y="603"/>
      <point x="571" y="609"/>
      <point x="579" y="631" type="curve" smooth="yes"/>
      <point x="586" y="649"/>
      <point x="569" y="676"/>
      <point x="545" y="689" type="curve"/>
      <point x="522" y="699"/>
      <point x="491.1107702762748" y="708.0553851381375"/>
      <point x="471" y="698" type="curve" smooth="yes"/>
      <point x="463" y="694"/>
      <point x="409" y="688"/>
      <point x="388" y="666" type="curve"/>
      <point x="384" y="661"/>
      <point x="345.3795006481867" y="650.0"/>
      <point x="362" y="650" type="curve"/>
      <point x="335" y="630"/>
      <point x="312" y="614"/>
      <point x="277" y="567" type="curve"/>
      <point x="233" y="509"/>
      <point x="217.0" y="481"/>
      <point x="195" y="418" type="curve"/>
      <point x="188" y="404"/>
      <point x="182.35339872649644" y="391.73689554273756"/>
      <point x="177" y="373" type="curve"/>
      <point x="176" y="355"/>
      <point x="163" y="334"/>
      <point x="163" y="313" type="curve"/>
      <point x="144" y="255"/>
      <point x="143" y="172"/>
      <point x="161" y="136" type="curve"/>
      <point x="168" y="120"/>
      <point x="171" y="106"/>
      <point x="178" y="87" type="curve" smooth="yes"/>
      <point x="184.23450522289897" y="71.41373694275259"/>
      <point x="198" y="67"/>
      <point x="199" y="59" type="curve"/>
      <point x="203" y="45"/>
      <point x="245" y="16"/>
      <point x="280" y="-1" type="curve" smooth="yes"/>
      <point x="312" y="-17"/>
      <point x="396" y="-25"/>
      <point x="423" y="-14" type="curve"/>
      <point x="443" y="-12"/>
      <point x="496" y="13"/>
      <point x="524" y="27" type="curve"/>
      <point x="540" y="7"/>
      <point x="564.4907439138937" y="-1.490743913893704"/>
      <point x="580" y="-17" type="curve"/>
      <point x="603" y="-31"/>
      <point x="644" y="-44"/>
      <point x="667" y="-44" type="curve" smooth="yes"/>
      <point x="705" y="-44"/>
      <point x="732" y="-25"/>
      <point x="731" y="5" type="curve" smooth="yes"/>
      <point x="730" y="38"/>
      <point x="714.0" y="53.0"/>
      <point x="681" y="53" type="curve"/>
      <point x="665" y="52"/>
      <point x="659" y="53.0"/>
      <point x="651" y="48" type="curve"/>
      <point x="638" y="56"/>
      <point x="615" y="56"/>
      <point x="609" y="61" type="curve"/>
      <point x="591" y="79" type="line"/>
      <point x="605" y="93"/>
      <point x="628" y="116"/>
      <point x="632" y="118" type="curve"/>
      <point x="647" y="136"/>
      <point x="667" y="164"/>
      <point x="697" y="212" type="curve"/>
      <point x="732" y="279"/>
      <point x="749" y="315"/>
      <point x="751" y="332" type="curve"/>
      <point x="751.0" y="347.0"/>
      <point x="764" y="373"/>
      <point x="761" y="388" type="curve"/>
      <point x="766" y="406"/>
      <point x="760" y="420"/>
      <point x="765" y="427" type="curve"/>
      <point x="764" y="449" type="line"/>
      <point x="770" y="486"/>
      <point x="756.0" y="505"/>
    </contour>
    <contour>
      <point x="679" y="445" type="curve"/>
      <point x="673" y="434"/>
      <point x="677" y="421"/>
      <point x="677" y="420" type="curve"/>
      <point x="666" y="342"/>
      <point x="651" y="319"/>
      <point x="610" y="245" type="curve"/>
      <point x="595" y="228"/>
      <point x="563" y="173"/>
      <point x="559" y="168" type="curve"/>
      <point x="555" y="164"/>
      <point x="550" y="159"/>
      <point x="544" y="152" type="curve"/>
      <point x="539" y="163"/>
      <point x="534.0" y="173"/>
      <point x="534" y="188" type="curve"/>
      <point x="533" y="207"/>
      <point x="540" y="240"/>
      <point x="538" y="257" type="curve"/>
      <point x="543" y="288"/>
      <point x="534" y="285"/>
      <point x="545" y="315" type="curve"/>
      <point x="554" y="330"/>
      <point x="563" y="378"/>
      <point x="577" y="404" type="curve"/>
      <point x="587" y="412"/>
      <point x="584.1055728090001" y="424.55278640450007"/>
      <point x="587" y="426" type="curve"/>
      <point x="603" y="444"/>
      <point x="623" y="488"/>
      <point x="676" y="505" type="curve" smooth="yes"/>
      <point x="689" y="509"/>
      <point x="679" y="479"/>
    </contour>
  </outline>
</glyph>
<glyph name="Kahook-cy" format="2">
  <advance width="531"/>
  <unicode hex="04C3"/>
  <outline>
    <contour>
      <point x="618" y="665" type="curve"/>
      <point x="613" y="661"/>
      <point x="581" y="627"/>
      <point x="563" y="609" type="curve" smooth="yes"/>
      <point x="554" y="600"/>
      <point x="548" y="594"/>
      <point x="550" y="596" type="curve"/>
      <point x="517" y="566"/>
      <point x="508" y="555"/>
      <point x="479" y="540" type="curve"/>
      <point x="454" y="521"/>
      <point x="432" y="500"/>
      <point x="406" y="477" type="curve" smooth="yes"/>
      <point x="379" y="453"/>
      <point x="348" y="426"/>
      <point x="306" y="395" type="curve"/>
      <point x="289" y="383" type="line"/>
      <point x="307" y="418"/>
      <point x="356" y="508"/>
      <point x="417" y="624" type="curve"/>
      <point x="430" y="658"/>
      <point x="409" y="690"/>
      <point x="370" y="694" type="curve" smooth="yes"/>
      <point x="355" y="696"/>
      <point x="341" y="685"/>
      <point x="337" y="669" type="curve"/>
      <point x="335" y="662"/>
      <point x="333" y="657"/>
      <point x="331" y="652" type="curve" smooth="yes"/>
      <point x="326" y="637"/>
      <point x="324" y="631"/>
      <point x="315" y="616" type="curve" smooth="yes"/>
      <point x="308" y="603"/>
      <point x="285" y="548"/>
      <point x="279" y="540" type="curve"/>
      <point x="276" y="532"/>
      <point x="273" y="523"/>
      <point x="269" y="514" type="curve" smooth="yes"/>
      <point x="266" y="506"/>
      <point x="263" y="498"/>
      <point x="259" y="490" type="curve" smooth="yes"/>
      <point x="250" y="470"/>
      <point x="238" y="447"/>
      <point x="231" y="412" type="curve"/>
      <point x="228" y="405"/>
      <point x="224" y="397"/>
      <point x="221" y="390" type="curve" smooth="yes"/>
      <point x="213" y="373"/>
      <point x="205" y="356"/>
      <point x="197" y="339" type="curve"/>
      <point x="187" y="314"/>
      <point x="181" y="288"/>
      <point x="172" y="262" type="curve" smooth="yes"/>
      <point x="161" y="228"/>
      <point x="138" y="138"/>
      <point x="126" y="115" type="curve"/>
      <point x="121" y="94"/>
      <point x="116" y="72"/>
      <point x="111" y="51" type="curve"/>
      <point x="103" y="27"/>
      <point x="106" y="8"/>
      <point x="119" y="-3" type="curve"/>
      <point x="125" y="-6"/>
      <point x="127" y="-10"/>
      <point x="133" y="-15" type="curve"/>
      <point x="153" y="-22"/>
      <point x="168" y="-22"/>
      <point x="177" y="-15" type="curve"/>
      <point x="194" y="6"/>
      <point x="197" y="31"/>
      <point x="206" y="51" type="curve" smooth="yes"/>
      <point x="209" y="57"/>
      <point x="212" y="98"/>
      <point x="220" y="109" type="curve"/>
      <point x="227" y="133"/>
      <point x="240" y="161"/>
      <point x="241" y="172" type="curve"/>
      <point x="241" y="191"/>
      <point x="267" y="253"/>
      <point x="272" y="273" type="curve"/>
      <point x="273" y="280"/>
      <point x="278" y="293"/>
      <point x="286" y="311" type="curve"/>
      <point x="304" y="302"/>
      <point x="316" y="294"/>
      <point x="343" y="273" type="curve"/>
      <point x="358" y="270"/>
      <point x="374" y="250"/>
      <point x="380" y="246" type="curve"/>
      <point x="399" y="235"/>
      <point x="411" y="218"/>
      <point x="417" y="190" type="curve"/>
      <point x="421" y="176"/>
      <point x="425" y="168"/>
      <point x="424" y="158" type="curve"/>
      <point x="428" y="148"/>
      <point x="431" y="124"/>
      <point x="425" y="100" type="curve" smooth="yes"/>
      <point x="421" y="81"/>
      <point x="419" y="73"/>
      <point x="414" y="63" type="curve"/>
      <point x="414" y="45"/>
      <point x="407" y="33"/>
      <point x="403" y="22" type="curve" smooth="yes"/>
      <point x="393" y="-4"/>
      <point x="379" y="-28"/>
      <point x="361" y="-50" type="curve" smooth="yes"/>
      <point x="323" y="-93"/>
      <point x="282" y="-107"/>
      <point x="260" y="-130" type="curve"/>
      <point x="247" y="-157"/>
      <point x="279" y="-186"/>
      <point x="297" y="-188" type="curve"/>
      <point x="307" y="-191"/>
      <point x="317" y="-190"/>
      <point x="327" y="-185" type="curve" smooth="yes"/>
      <point x="343" y="-177"/>
      <point x="389" y="-146"/>
      <point x="394" y="-141" type="curve"/>
      <point x="431" y="-114"/>
      <point x="457" y="-59"/>
      <point x="481" y="-33" type="curve"/>
      <point x="483" y="-27"/>
      <point x="502" y="19"/>
      <point x="503" y="22" type="curve"/>
      <point x="515" y="52"/>
      <point x="521" y="71"/>
      <point x="521" y="83" type="curve" smooth="yes"/>
      <point x="519" y="117"/>
      <point x="518" y="151"/>
      <point x="516" y="185" type="curve"/>
      <point x="514" y="198"/>
      <point x="511" y="209"/>
      <point x="507" y="221" type="curve" smooth="yes"/>
      <point x="488" y="275"/>
      <point x="443" y="314"/>
      <point x="381" y="355" type="curve"/>
      <point x="380" y="356"/>
      <point x="378" y="356"/>
      <point x="377" y="357" type="curve"/>
      <point x="389" y="369"/>
      <point x="400" y="382"/>
      <point x="413" y="393" type="curve" smooth="yes"/>
      <point x="458" y="428" type="line"/>
      <point x="462" y="432"/>
      <point x="489" y="448"/>
      <point x="506" y="463" type="curve"/>
      <point x="543" y="489"/>
      <point x="580" y="515"/>
      <point x="612" y="539" type="curve" smooth="yes"/>
      <point x="662" y="575"/>
      <point x="698" y="606"/>
      <point x="694" y="619" type="curve"/>
      <point x="695" y="626" type="line"/>
      <point x="684" y="659"/>
      <point x="649" y="675"/>
    </contour>
  </outline>
</glyph>
<glyph name="kahook-cy" format="2">
  <advance width="436"/>
  <unicode hex="04C4"/>
  <outline>
    <contour>
      <point x="140" y="-11" type="curve"/>
      <point x="157" y="-11"/>
      <point x="172" y="-8"/>
      <point x="183" y="19" type="curve"/>
      <point x="183" y="52"/>
      <point x="203" y="100"/>
      <point x="214" y="137" type="curve"/>
      <point x="221" y="162"/>
      <point x="230" y="177"/>
      <point x="235" y="198" type="curve"/>
      <point x="236" y="200"/>
      <point x="236" y="202"/>
      <point x="237" y="204" type="curve"/>
      <point x="240" y="219"/>
      <point x="244" y="235"/>
      <point x="250" y="250" type="curve"/>
      <point x="261" y="285"/>
      <point x="274" y="301"/>
      <point x="287" y="372" type="curve"/>
      <point x="286" y="394"/>
      <point x="272" y="395"/>
      <point x="268" y="396" type="curve"/>
      <point x="261" y="403"/>
      <point x="252" y="415"/>
      <point x="239" y="415" type="curve"/>
      <point x="226" y="415"/>
      <point x="208" y="411"/>
      <point x="203" y="392" type="curve"/>
      <point x="203" y="390"/>
      <point x="201" y="381"/>
      <point x="198" y="372" type="curve"/>
      <point x="196" y="362"/>
      <point x="194" y="353"/>
      <point x="192" y="350" type="curve"/>
      <point x="183" y="342"/>
      <point x="177" y="303"/>
      <point x="177" y="301" type="curve"/>
      <point x="172" y="288"/>
      <point x="162" y="273"/>
      <point x="161" y="254" type="curve"/>
      <point x="152" y="234"/>
      <point x="157" y="215"/>
      <point x="147" y="200" type="curve"/>
      <point x="140" y="184"/>
      <point x="131" y="160"/>
      <point x="121" y="130" type="curve"/>
      <point x="118" y="122"/>
      <point x="115" y="113"/>
      <point x="113" y="107" type="curve"/>
      <point x="111" y="102"/>
      <point x="109" y="96"/>
      <point x="108" y="91" type="curve"/>
      <point x="104" y="80"/>
      <point x="100" y="70"/>
      <point x="98" y="66" type="curve"/>
      <point x="93" y="54"/>
      <point x="95" y="42"/>
      <point x="95" y="35" type="curve"/>
      <point x="102" y="17"/>
      <point x="110" y="3"/>
    </contour>
    <contour>
      <point x="303" y="-171" type="curve"/>
      <point x="360" y="-146"/>
      <point x="383" y="-113"/>
      <point x="402" y="-80" type="curve"/>
      <point x="407" y="-74"/>
      <point x="421" y="-48"/>
      <point x="424" y="-27" type="curve"/>
      <point x="424" y="-25"/>
      <point x="433" y="-12"/>
      <point x="432" y="2" type="curve"/>
      <point x="446" y="36"/>
      <point x="439" y="53"/>
      <point x="438" y="76" type="curve"/>
      <point x="437" y="89"/>
      <point x="423" y="125"/>
      <point x="415" y="134" type="curve"/>
      <point x="401" y="153"/>
      <point x="382" y="172"/>
      <point x="374" y="175" type="curve"/>
      <point x="372" y="175"/>
      <point x="352" y="188"/>
      <point x="346" y="192" type="curve"/>
      <point x="363" y="205"/>
      <point x="381" y="218"/>
      <point x="397" y="233" type="curve"/>
      <point x="424" y="255"/>
      <point x="449" y="281"/>
      <point x="473" y="312" type="curve"/>
      <point x="486" y="329"/>
      <point x="493" y="349"/>
      <point x="475" y="370" type="curve"/>
      <point x="459" y="376"/>
      <point x="443" y="392"/>
      <point x="419" y="387" type="curve"/>
      <point x="316" y="265" type="line" smooth="yes"/>
      <point x="307" y="254"/>
      <point x="293" y="243"/>
      <point x="280" y="232" type="curve"/>
      <point x="277" y="229"/>
      <point x="271" y="223"/>
      <point x="264" y="216" type="curve"/>
      <point x="259" y="212"/>
      <point x="254" y="208"/>
      <point x="249" y="205" type="curve"/>
      <point x="240" y="204"/>
      <point x="234" y="205"/>
      <point x="231" y="203" type="curve"/>
      <point x="212.35980809671494" y="195.83069542181343"/>
      <point x="228" y="177"/>
      <point x="230" y="159" type="curve"/>
      <point x="244" y="145"/>
      <point x="253" y="130"/>
      <point x="282" y="121" type="curve"/>
      <point x="289" y="119"/>
      <point x="292" y="118"/>
      <point x="296" y="118" type="curve"/>
      <point x="314" y="120"/>
      <point x="329" y="113"/>
      <point x="345" y="94" type="curve"/>
      <point x="347" y="79"/>
      <point x="349" y="69"/>
      <point x="345" y="58" type="curve"/>
      <point x="345" y="54"/>
      <point x="346" y="51"/>
      <point x="346" y="47" type="curve"/>
      <point x="349" y="26"/>
      <point x="341" y="9"/>
      <point x="337" y="-7" type="curve"/>
      <point x="332" y="-27"/>
      <point x="316" y="-56"/>
      <point x="301" y="-73" type="curve"/>
      <point x="284" y="-92"/>
      <point x="267" y="-97"/>
      <point x="247" y="-87" type="curve"/>
      <point x="234" y="-82"/>
      <point x="224" y="-93"/>
      <point x="224" y="-107" type="curve"/>
      <point x="226" y="-125"/>
      <point x="236" y="-140"/>
      <point x="250" y="-150" type="curve"/>
      <point x="260" y="-156"/>
      <point x="268" y="-161"/>
      <point x="274" y="-165" type="curve"/>
      <point x="287" y="-173"/>
      <point x="293" y="-175"/>
    </contour>
  </outline>
</glyph>
<glyph name="Hahook-cy" format="2">
  <advance width="497"/>
  <unicode hex="04FC"/>
  <outline>
    <contour>
      <point x="640" y="656" type="curve"/>
      <point x="624" y="664"/>
      <point x="611" y="667"/>
      <point x="605" y="667" type="curve" smooth="yes"/>
      <point x="589" y="667"/>
      <point x="579" y="653"/>
      <point x="582" y="637" type="curve"/>
      <point x="572" y="627"/>
      <point x="547" y="599"/>
      <point x="533" y="573" type="curve"/>
      <point x="510" y="537"/>
      <point x="490" y="523"/>
      <point x="485" y="514" type="curve"/>
      <point x="464" y="482"/>
      <point x="421" y="445"/>
      <point x="391" y="412" type="curve"/>
      <point x="378" y="443"/>
      <point x="368.989" y="479.367"/>
      <point x="358" y="513" type="curve"/>
      <point x="344" y="564" type="line"/>
      <point x="340" y="584"/>
      <point x="336" y="605"/>
      <point x="322" y="639" type="curve"/>
      <point x="305" y="658"/>
      <point x="290" y="666"/>
      <point x="272" y="666" type="curve" smooth="yes"/>
      <point x="259" y="666"/>
      <point x="248" y="664"/>
      <point x="237" y="647" type="curve"/>
      <point x="233" y="630"/>
      <point x="234" y="613"/>
      <point x="243" y="599" type="curve"/>
      <point x="251" y="566"/>
      <point x="260" y="533"/>
      <point x="268" y="500" type="curve" smooth="yes"/>
      <point x="271" y="490"/>
      <point x="292" y="420"/>
      <point x="292" y="413" type="curve"/>
      <point x="303" y="391"/>
      <point x="313" y="368"/>
      <point x="324" y="346" type="curve"/>
      <point x="287.37" y="306.706"/>
      <point x="235" y="256"/>
      <point x="214" y="228" type="curve"/>
      <point x="182" y="190"/>
      <point x="164" y="167"/>
      <point x="141" y="144" type="curve"/>
      <point x="125" y="121"/>
      <point x="112" y="102"/>
      <point x="92" y="77" type="curve"/>
      <point x="49" y="25" type="line"/>
      <point x="49" y="-17"/>
      <point x="76" y="-45"/>
      <point x="120" y="-32" type="curve"/>
      <point x="177" y="44"/>
      <point x="222" y="100"/>
      <point x="287" y="173" type="curve"/>
      <point x="294" y="188"/>
      <point x="324" y="214"/>
      <point x="348" y="237" type="curve"/>
      <point x="348" y="225"/>
      <point x="355" y="218"/>
      <point x="355" y="215" type="curve"/>
      <point x="356" y="213"/>
      <point x="358" y="203"/>
      <point x="360" y="191" type="curve" smooth="yes"/>
      <point x="363" y="172"/>
      <point x="368" y="147"/>
      <point x="372" y="137" type="curve"/>
      <point x="379" y="108"/>
      <point x="389" y="32"/>
      <point x="385" y="23" type="curve"/>
      <point x="384" y="21"/>
      <point x="382" y="13"/>
      <point x="386" y="0" type="curve"/>
      <point x="379" y="-16"/>
      <point x="382" y="-32"/>
      <point x="382" y="-43" type="curve"/>
      <point x="380" y="-88"/>
      <point x="361" y="-125"/>
      <point x="333" y="-139" type="curve"/>
      <point x="303" y="-134" type="line"/>
      <point x="287" y="-137"/>
      <point x="275" y="-154"/>
      <point x="275" y="-171" type="curve" smooth="yes"/>
      <point x="275" y="-193"/>
      <point x="296" y="-210"/>
      <point x="324" y="-213" type="curve"/>
      <point x="337" y="-213"/>
      <point x="347" y="-215"/>
      <point x="367" y="-213" type="curve"/>
      <point x="373" y="-208"/>
      <point x="377" y="-203"/>
      <point x="379" y="-203" type="curve"/>
      <point x="405" y="-198"/>
      <point x="419" y="-167"/>
      <point x="434" y="-155" type="curve" smooth="yes"/>
      <point x="443" y="-148"/>
      <point x="449" y="-139"/>
      <point x="452" y="-130" type="curve"/>
      <point x="458" y="-111"/>
      <point x="466" y="-77"/>
      <point x="473" y="-50" type="curve"/>
      <point x="477" y="11" type="line"/>
      <point x="477" y="25"/>
      <point x="483" y="44"/>
      <point x="477" y="63" type="curve"/>
      <point x="474" y="94"/>
      <point x="471" y="124"/>
      <point x="466" y="150" type="curve" smooth="yes"/>
      <point x="462" y="177"/>
      <point x="456" y="201"/>
      <point x="449" y="221" type="curve"/>
      <point x="439" y="270"/>
      <point x="436" y="284"/>
      <point x="423" y="309" type="curve"/>
      <point x="436" y="323"/>
      <point x="450" y="338"/>
      <point x="455" y="345" type="curve"/>
      <point x="472" y="365"/>
      <point x="528" y="421"/>
      <point x="540" y="440" type="curve"/>
      <point x="550" y="454"/>
      <point x="563" y="469"/>
      <point x="582" y="486" type="curve"/>
      <point x="612" y="517"/>
      <point x="640" y="554"/>
      <point x="655" y="584" type="curve"/>
      <point x="670" y="606"/>
      <point x="662" y="638"/>
    </contour>
  </outline>
</glyph>
<glyph name="Hastroke-cy" format="2">
  <advance width="577"/>
  <unicode hex="04FE"/>
  <outline>
    <contour>
      <point x="213" y="322" type="curve"/>
      <point x="167" y="321"/>
      <point x="159" y="317"/>
      <point x="167" y="276" type="curve"/>
      <point x="171" y="267"/>
      <point x="175" y="263"/>
      <point x="195" y="261" type="curve"/>
      <point x="207" y="256"/>
      <point x="219" y="255"/>
      <point x="227" y="254" type="curve"/>
      <point x="261" y="250"/>
      <point x="494" y="248"/>
      <point x="506" y="247" type="curve"/>
      <point x="530" y="245"/>
      <point x="556" y="244"/>
      <point x="566" y="244" type="curve"/>
      <point x="595" y="238"/>
      <point x="603" y="279"/>
      <point x="588" y="300" type="curve"/>
      <point x="577" y="316"/>
      <point x="568" y="314"/>
      <point x="537" y="317" type="curve"/>
      <point x="486" y="322"/>
      <point x="258" y="324"/>
    </contour>
    <component base="X" xOffset="26"/>
  </outline>
</glyph>
<glyph name="guilsinglleft" format="2">
  <advance width="446"/>
  <unicode hex="2039"/>
  <outline>
    <contour>
      <point x="406" y="-6" type="curve"/>
      <point x="437" y="2"/>
      <point x="402" y="67"/>
      <point x="353" y="91" type="curve"/>
      <point x="260" y="143"/>
      <point x="236" y="178"/>
      <point x="224" y="205" type="curve"/>
      <point x="220" y="231"/>
      <point x="228" y="241"/>
      <point x="275" y="284" type="curve"/>
      <point x="352" y="353"/>
      <point x="375" y="367"/>
      <point x="402" y="390" type="curve"/>
      <point x="411" y="398"/>
      <point x="414" y="427"/>
      <point x="414" y="427" type="curve"/>
      <point x="412" y="438"/>
      <point x="396" y="438"/>
      <point x="382" y="448" type="curve"/>
      <point x="376" y="452"/>
      <point x="364" y="459"/>
      <point x="356" y="456" type="curve"/>
      <point x="350" y="456"/>
      <point x="338" y="443"/>
      <point x="330" y="434" type="curve"/>
      <point x="317" y="421"/>
      <point x="305" y="405"/>
      <point x="256" y="369" type="curve"/>
      <point x="186" y="309"/>
      <point x="157" y="289"/>
      <point x="139" y="267" type="curve"/>
      <point x="137" y="266"/>
      <point x="126" y="239"/>
      <point x="115" y="237" type="curve"/>
      <point x="122" y="199" type="line"/>
      <point x="154" y="157" type="line" smooth="yes"/>
      <point x="176" y="117"/>
      <point x="197" y="90"/>
      <point x="242" y="64" type="curve"/>
      <point x="262" y="40"/>
      <point x="280" y="33"/>
      <point x="328" y="8" type="curve"/>
      <point x="370" y="-11"/>
      <point x="395" y="-7"/>
    </contour>
  </outline>
</glyph>
<glyph name="guilsinglright" format="2">
  <advance width="446"/>
  <unicode hex="203A"/>
  <outline>
    <contour>
      <point x="243" y="-15" type="curve"/>
      <point x="249" y="-15"/>
      <point x="261" y="-2"/>
      <point x="269" y="7" type="curve"/>
      <point x="282" y="20"/>
      <point x="294" y="36"/>
      <point x="343" y="72" type="curve"/>
      <point x="413" y="132"/>
      <point x="445" y="159"/>
      <point x="463" y="181" type="curve"/>
      <point x="465" y="182"/>
      <point x="475" y="215"/>
      <point x="486" y="217" type="curve"/>
      <point x="479" y="247" type="line"/>
      <point x="455" y="289" type="line" smooth="yes"/>
      <point x="433" y="329"/>
      <point x="412" y="356"/>
      <point x="367" y="382" type="curve"/>
      <point x="347" y="406"/>
      <point x="329" y="413"/>
      <point x="281" y="438" type="curve"/>
      <point x="239" y="457"/>
      <point x="197" y="451"/>
      <point x="186" y="450" type="curve"/>
      <point x="155" y="442"/>
      <point x="198" y="387"/>
      <point x="247" y="363" type="curve"/>
      <point x="340" y="311"/>
      <point x="371" y="269"/>
      <point x="383" y="242" type="curve"/>
      <point x="387" y="216"/>
      <point x="357" y="191"/>
      <point x="310" y="148" type="curve"/>
      <point x="233" y="79"/>
      <point x="217" y="64"/>
      <point x="190" y="41" type="curve"/>
      <point x="181" y="33"/>
      <point x="178" y="19"/>
      <point x="178" y="19" type="curve"/>
      <point x="180" y="8"/>
      <point x="197" y="12"/>
      <point x="211" y="2" type="curve"/>
      <point x="217" y="-2"/>
      <point x="235" y="-18"/>
    </contour>
  </outline>
</glyph>
<glyph name="oneeighth" format="2">
  <advance width="800"/>
  <unicode hex="215B"/>
  <outline>
    <contour>
      <point x="238" y="-21" type="curve"/>
      <point x="248" y="-19"/>
      <point x="269" y="-5"/>
      <point x="279" y="20" type="curve"/>
      <point x="292" y="50"/>
      <point x="410" y="191"/>
      <point x="453" y="243" type="curve"/>
      <point x="473" y="262"/>
      <point x="486" y="278"/>
      <point x="486" y="283" type="curve"/>
      <point x="486" y="283"/>
      <point x="490" y="290"/>
      <point x="493" y="289" type="curve"/>
      <point x="501" y="292"/>
      <point x="502" y="296"/>
      <point x="505" y="300" type="curve"/>
      <point x="506" y="304"/>
      <point x="560" y="355"/>
      <point x="577" y="370" type="curve"/>
      <point x="586" y="382"/>
      <point x="594" y="389"/>
      <point x="598" y="392" type="curve"/>
      <point x="599" y="397"/>
      <point x="725" y="515"/>
      <point x="744" y="534" type="curve"/>
      <point x="804" y="588"/>
      <point x="811" y="591"/>
      <point x="820" y="613" type="curve"/>
      <point x="826" y="624"/>
      <point x="826" y="636"/>
      <point x="818" y="648" type="curve"/>
      <point x="811" y="660"/>
      <point x="796" y="677"/>
      <point x="796" y="677" type="curve"/>
      <point x="791" y="679"/>
      <point x="784" y="679"/>
      <point x="780" y="677" type="curve"/>
      <point x="770" y="680"/>
      <point x="763" y="679"/>
      <point x="760" y="669" type="curve"/>
      <point x="754" y="656"/>
      <point x="506" y="401"/>
      <point x="471" y="372" type="curve"/>
      <point x="470" y="367"/>
      <point x="463" y="364"/>
      <point x="462" y="360" type="curve"/>
      <point x="460" y="355"/>
      <point x="453" y="349"/>
      <point x="450" y="343" type="curve"/>
      <point x="443" y="342"/>
      <point x="433" y="332"/>
      <point x="429" y="322" type="curve"/>
      <point x="426" y="313"/>
      <point x="418" y="305"/>
      <point x="413" y="307" type="curve"/>
      <point x="405" y="298"/>
      <point x="268" y="143"/>
      <point x="253" y="122" type="curve"/>
      <point x="250" y="114"/>
      <point x="240" y="103"/>
      <point x="230" y="92" type="curve"/>
      <point x="178" y="20"/>
      <point x="199" y="-18"/>
    </contour>
    <component base="one.numerator" xOffset="-50"/>
    <component base="eight.denominator" xOffset="457"/>
  </outline>
</glyph>
<glyph name="D.ss01" format="2">
  <advance width="587"/>
  <outline>
    <contour>
      <point x="226" y="-64" type="curve"/>
      <point x="306" y="-64"/>
      <point x="419" y="-27"/>
      <point x="483" y="44" type="curve"/>
      <point x="526" y="70"/>
      <point x="596" y="170"/>
      <point x="599" y="198" type="curve"/>
      <point x="599" y="203"/>
      <point x="599" y="208"/>
      <point x="607" y="208" type="curve"/>
      <point x="611" y="208"/>
      <point x="648" y="308"/>
      <point x="657" y="369" type="curve"/>
      <point x="662" y="403"/>
      <point x="664" y="431"/>
      <point x="665" y="463" type="curve"/>
      <point x="665" y="481"/>
      <point x="663" y="507"/>
      <point x="659" y="527" type="curve"/>
      <point x="652" y="566"/>
      <point x="601" y="632"/>
      <point x="589" y="639" type="curve"/>
      <point x="584" y="639"/>
      <point x="577" y="646"/>
      <point x="577" y="646" type="curve"/>
      <point x="562" y="662"/>
      <point x="514" y="684"/>
      <point x="493" y="688" type="curve"/>
      <point x="467" y="692"/>
      <point x="426" y="695"/>
      <point x="387" y="695" type="curve"/>
      <point x="371" y="695"/>
      <point x="351" y="695"/>
      <point x="338" y="693" type="curve"/>
      <point x="303" y="688"/>
      <point x="273" y="672"/>
      <point x="273" y="651" type="curve"/>
      <point x="273" y="641"/>
      <point x="278" y="632"/>
      <point x="287" y="623" type="curve"/>
      <point x="314" y="600" type="line"/>
      <point x="297" y="570" type="line"/>
      <point x="287" y="553"/>
      <point x="276" y="516"/>
      <point x="267" y="490" type="curve"/>
      <point x="261" y="469"/>
      <point x="242" y="431"/>
      <point x="236" y="414" type="curve"/>
      <point x="223" y="378"/>
      <point x="172" y="224"/>
      <point x="157" y="170" type="curve"/>
      <point x="145" y="153"/>
      <point x="129" y="91"/>
      <point x="128" y="57" type="curve"/>
      <point x="128" y="48"/>
      <point x="124" y="47"/>
      <point x="119" y="47" type="curve"/>
      <point x="111" y="47"/>
      <point x="110" y="42"/>
      <point x="109" y="9" type="curve"/>
      <point x="119" y="-52"/>
      <point x="171" y="-64"/>
    </contour>
    <contour>
      <point x="251" y="37" type="curve"/>
      <point x="237" y="37"/>
      <point x="225" y="39"/>
      <point x="225" y="50" type="curve"/>
      <point x="225" y="81"/>
      <point x="245" y="189"/>
      <point x="262" y="221" type="curve"/>
      <point x="268" y="237"/>
      <point x="282" y="297"/>
      <point x="310" y="352" type="curve"/>
      <point x="329" y="417"/>
      <point x="339" y="426"/>
      <point x="356" y="485" type="curve"/>
      <point x="369" y="531"/>
      <point x="389" y="588"/>
      <point x="406" y="588" type="curve"/>
      <point x="410" y="590"/>
      <point x="426" y="592"/>
      <point x="440" y="592" type="curve"/>
      <point x="458" y="592"/>
      <point x="479" y="589"/>
      <point x="498" y="582" type="curve"/>
      <point x="545" y="565"/>
      <point x="577" y="515"/>
      <point x="577" y="437" type="curve"/>
      <point x="577" y="393"/>
      <point x="567" y="335"/>
      <point x="545" y="282" type="curve"/>
      <point x="513" y="201"/>
      <point x="481" y="162"/>
      <point x="440" y="120" type="curve"/>
      <point x="403" y="82"/>
      <point x="352" y="53"/>
      <point x="320" y="45" type="curve"/>
      <point x="301" y="38"/>
      <point x="264" y="37"/>
    </contour>
  </outline>
</glyph>
<glyph name="D.ss02" format="2">
  <advance width="587"/>
  <outline>
    <contour>
      <point x="105" y="-31" type="curve"/>
      <point x="124" y="-68" type="line"/>
      <point x="167" y="-66" type="line"/>
      <point x="198" y="-68"/>
      <point x="216" y="-64"/>
      <point x="235" y="-59" type="curve"/>
      <point x="239" y="-55"/>
      <point x="249" y="-49"/>
      <point x="264" y="-50" type="curve"/>
      <point x="293" y="-36"/>
      <point x="416" y="12"/>
      <point x="425" y="24" type="curve"/>
      <point x="440" y="28"/>
      <point x="457" y="37"/>
      <point x="476" y="46" type="curve"/>
      <point x="550" y="85"/>
      <point x="635" y="204"/>
      <point x="665" y="295" type="curve"/>
      <point x="682" y="352"/>
      <point x="682" y="444"/>
      <point x="661" y="493" type="curve"/>
      <point x="654" y="515"/>
      <point x="642" y="534"/>
      <point x="639" y="540" type="curve"/>
      <point x="628" y="558"/>
      <point x="588" y="612"/>
      <point x="558" y="632" type="curve"/>
      <point x="481" y="680"/>
      <point x="411" y="695"/>
      <point x="318" y="692" type="curve"/>
      <point x="294" y="692"/>
      <point x="218" y="684"/>
      <point x="190" y="677" type="curve"/>
      <point x="128" y="665"/>
      <point x="106" y="574"/>
      <point x="159" y="589" type="curve"/>
      <point x="180" y="595"/>
      <point x="223" y="612"/>
      <point x="244" y="614" type="curve"/>
      <point x="282" y="611"/>
      <point x="282" y="611"/>
      <point x="280" y="599" type="curve"/>
      <point x="263" y="569"/>
      <point x="202" y="424"/>
      <point x="176" y="372" type="curve"/>
      <point x="176" y="372"/>
      <point x="149" y="306"/>
      <point x="144" y="287" type="curve"/>
      <point x="133" y="253" type="line"/>
      <point x="125" y="239"/>
      <point x="118" y="216"/>
      <point x="117" y="206" type="curve"/>
      <point x="105" y="171"/>
      <point x="78" y="67"/>
      <point x="73" y="31" type="curve"/>
      <point x="62" y="-10"/>
      <point x="82" y="-11"/>
    </contour>
    <contour>
      <point x="207" y="30" type="curve"/>
      <point x="158" y="32" type="line"/>
      <point x="170" y="66" type="line"/>
      <point x="182" y="115"/>
      <point x="189" y="149"/>
      <point x="204" y="207" type="curve"/>
      <point x="209" y="216"/>
      <point x="209" y="226"/>
      <point x="211" y="235" type="curve"/>
      <point x="211" y="235"/>
      <point x="226" y="249"/>
      <point x="234" y="267" type="curve"/>
      <point x="267" y="368"/>
      <point x="313" y="472"/>
      <point x="318" y="485" type="curve"/>
      <point x="336" y="499"/>
      <point x="360" y="569"/>
      <point x="361" y="579" type="curve"/>
      <point x="363" y="597"/>
      <point x="363" y="597"/>
      <point x="367" y="602" type="curve"/>
      <point x="386" y="602"/>
      <point x="439" y="594"/>
      <point x="448" y="581" type="curve"/>
      <point x="451" y="580"/>
      <point x="472" y="569"/>
      <point x="489" y="567" type="curve"/>
      <point x="507" y="557"/>
      <point x="529" y="541"/>
      <point x="557" y="504" type="curve"/>
      <point x="580" y="467"/>
      <point x="586" y="443"/>
      <point x="584" y="362" type="curve"/>
      <point x="582" y="323"/>
      <point x="578" y="310"/>
      <point x="548" y="259" type="curve"/>
      <point x="530" y="234"/>
      <point x="517" y="202"/>
      <point x="511" y="202" type="curve"/>
      <point x="503" y="199"/>
      <point x="492" y="176"/>
      <point x="475" y="167" type="curve"/>
      <point x="464" y="153"/>
      <point x="436" y="127"/>
      <point x="421" y="111" type="curve"/>
      <point x="386" y="95"/>
      <point x="314" y="60"/>
      <point x="304" y="60" type="curve"/>
      <point x="304" y="60"/>
      <point x="295" y="61"/>
      <point x="280" y="56" type="curve"/>
      <point x="257" y="47"/>
      <point x="225" y="29"/>
    </contour>
  </outline>
</glyph>
<glyph name="Ia-cy.ss01" format="2">
  <advance width="579"/>
  <outline>
    <contour>
      <point x="573" y="588" type="curve"/>
      <point x="541" y="584"/>
      <point x="508" y="574"/>
      <point x="478" y="558" type="curve" smooth="yes"/>
      <point x="424" y="530"/>
      <point x="380" y="483"/>
      <point x="374" y="422" type="curve" smooth="yes"/>
      <point x="373" y="414"/>
      <point x="372" y="406"/>
      <point x="369" y="398" type="curve" smooth="yes"/>
      <point x="358" y="372"/>
      <point x="385" y="334"/>
      <point x="411" y="328" type="curve" smooth="yes"/>
      <point x="426" y="324"/>
      <point x="445" y="337"/>
      <point x="457" y="344" type="curve"/>
      <point x="469" y="337"/>
      <point x="481" y="330"/>
      <point x="493" y="323" type="curve"/>
      <point x="495" y="331" type="line"/>
      <point x="515" y="392"/>
      <point x="534" y="453"/>
      <point x="552" y="514" type="curve" smooth="yes"/>
      <point x="559" y="539"/>
      <point x="566" y="563"/>
    </contour>
    <contour>
      <point x="150" y="-36" type="curve"/>
      <point x="120" y="-11"/>
      <point x="78" y="34"/>
      <point x="141" y="49" type="curve" smooth="yes"/>
      <point x="229" y="70"/>
      <point x="313" y="169"/>
      <point x="366" y="242" type="curve"/>
      <point x="372" y="250" type="line"/>
      <point x="315" y="281"/>
      <point x="288" y="310"/>
      <point x="274" y="374" type="curve" smooth="yes"/>
      <point x="270" y="392"/>
      <point x="269" y="405"/>
      <point x="269" y="414" type="curve"/>
      <point x="277" y="426"/>
      <point x="272" y="442"/>
      <point x="277" y="455" type="curve" smooth="yes"/>
      <point x="284" y="477"/>
      <point x="292" y="498"/>
      <point x="299" y="520" type="curve" smooth="yes"/>
      <point x="326" y="598"/>
      <point x="410" y="642"/>
      <point x="483" y="667" type="curve"/>
      <point x="515" y="680"/>
      <point x="538" y="686"/>
      <point x="555" y="684" type="curve"/>
      <point x="577" y="686"/>
      <point x="587" y="689"/>
      <point x="596" y="687" type="curve"/>
      <point x="629" y="696"/>
      <point x="708" y="648"/>
      <point x="695" y="611" type="curve" smooth="yes"/>
      <point x="682" y="574"/>
      <point x="671" y="536"/>
      <point x="656" y="500" type="curve" smooth="yes"/>
      <point x="624" y="422"/>
      <point x="560" y="214"/>
      <point x="553" y="134" type="curve"/>
      <point x="539" y="95"/>
      <point x="540" y="48"/>
      <point x="530" y="7" type="curve" smooth="yes"/>
      <point x="525" y="-15"/>
      <point x="488" y="-34"/>
      <point x="468" y="-23" type="curve" smooth="yes"/>
      <point x="452" y="-15"/>
      <point x="439" y="-1"/>
      <point x="426" y="12" type="curve"/>
      <point x="434" y="37"/>
      <point x="433" y="65"/>
      <point x="444" y="89" type="curve"/>
      <point x="445" y="103"/>
      <point x="448" y="122"/>
      <point x="453" y="146" type="curve" smooth="yes"/>
      <point x="458" y="168"/>
      <point x="461" y="193"/>
      <point x="469" y="214" type="curve"/>
      <point x="471" y="230" type="line"/>
      <point x="467" y="224" type="line"/>
      <point x="458" y="211"/>
      <point x="437" y="185"/>
      <point x="410" y="155" type="curve" smooth="yes"/>
      <point x="336" y="72"/>
      <point x="216" y="-45"/>
    </contour>
  </outline>
</glyph>
<glyph name="M.ss02" format="2">
  <advance width="729"/>
  <outline>
    <contour>
      <point x="676" y="-69" type="curve"/>
      <point x="691" y="-69"/>
      <point x="711" y="-60"/>
      <point x="722" y="-41" type="curve"/>
      <point x="723" y="-37"/>
      <point x="720" y="-24"/>
      <point x="718" y="-1" type="curve"/>
      <point x="712" y="39"/>
      <point x="716" y="119"/>
      <point x="720" y="155" type="curve"/>
      <point x="727" y="224"/>
      <point x="738" y="303"/>
      <point x="745" y="360" type="curve"/>
      <point x="748" y="378"/>
      <point x="750" y="395"/>
      <point x="754" y="412" type="curve"/>
      <point x="757" y="424"/>
      <point x="761" y="455"/>
      <point x="767" y="478" type="curve"/>
      <point x="772" y="504"/>
      <point x="779" y="536"/>
      <point x="782" y="554" type="curve"/>
      <point x="786" y="573"/>
      <point x="787" y="579"/>
      <point x="787" y="579" type="curve"/>
      <point x="783" y="582"/>
      <point x="783" y="584"/>
      <point x="785" y="586" type="curve"/>
      <point x="797" y="586"/>
      <point x="780" y="629"/>
      <point x="756" y="648" type="curve"/>
      <point x="723" y="675"/>
      <point x="720" y="674"/>
      <point x="671" y="629" type="curve"/>
      <point x="635" y="588"/>
      <point x="589" y="524"/>
      <point x="595" y="519" type="curve"/>
      <point x="595" y="519"/>
      <point x="590" y="508"/>
      <point x="582" y="504" type="curve"/>
      <point x="574.3690749362853" y="492.5536124044279"/>
      <point x="554.6829028335336" y="462.1691728232046"/>
      <point x="533" y="431" type="curve"/>
      <point x="486" y="360"/>
      <point x="470" y="339"/>
      <point x="452" y="310" type="curve"/>
      <point x="435" y="286"/>
      <point x="425" y="269"/>
      <point x="416" y="258" type="curve"/>
      <point x="406" y="275"/>
      <point x="407" y="321"/>
      <point x="412" y="384" type="curve"/>
      <point x="414" y="402"/>
      <point x="426" y="424"/>
      <point x="422" y="436" type="curve"/>
      <point x="423" y="442"/>
      <point x="423" y="447"/>
      <point x="423" y="447" type="curve"/>
      <point x="432" y="455"/>
      <point x="432" y="461"/>
      <point x="432" y="466" type="curve"/>
      <point x="432" y="474"/>
      <point x="426" y="520"/>
      <point x="442" y="577" type="curve"/>
      <point x="448" y="596"/>
      <point x="444" y="610"/>
      <point x="444" y="610" type="curve"/>
      <point x="444" y="615"/>
      <point x="447" y="616"/>
      <point x="447" y="616" type="curve"/>
      <point x="456" y="617"/>
      <point x="443" y="637"/>
      <point x="427" y="655" type="curve"/>
      <point x="401" y="680"/>
      <point x="379" y="686"/>
      <point x="359" y="666" type="curve"/>
      <point x="347.1039039612762" y="650.138538615035"/>
      <point x="323.01762250149824" y="611.0264337522474"/>
      <point x="321" y="608" type="curve"/>
      <point x="316" y="600"/>
      <point x="313" y="592"/>
      <point x="313" y="587" type="curve"/>
      <point x="310" y="584"/>
      <point x="306" y="581"/>
      <point x="303" y="577" type="curve" smooth="yes"/>
      <point x="297" y="569"/>
      <point x="292" y="559"/>
      <point x="295" y="549" type="curve"/>
      <point x="293" y="544"/>
      <point x="291" y="539"/>
      <point x="289" y="536" type="curve"/>
      <point x="286" y="529"/>
      <point x="282" y="520"/>
      <point x="275" y="503" type="curve"/>
      <point x="271" y="495"/>
      <point x="266" y="485"/>
      <point x="264" y="478" type="curve"/>
      <point x="264" y="478"/>
      <point x="257" y="477"/>
      <point x="258" y="473" type="curve"/>
      <point x="258" y="468"/>
      <point x="256" y="462"/>
      <point x="252" y="452" type="curve"/>
      <point x="249" y="445"/>
      <point x="239" y="426"/>
      <point x="236" y="417" type="curve"/>
      <point x="230" y="404"/>
      <point x="228" y="399"/>
      <point x="227" y="393" type="curve"/>
      <point x="224" y="386"/>
      <point x="205" y="334"/>
      <point x="175" y="256" type="curve"/>
      <point x="153" y="199"/>
      <point x="141" y="168"/>
      <point x="125" y="121" type="curve"/>
      <point x="110" y="94"/>
      <point x="92" y="61"/>
      <point x="76" y="28" type="curve"/>
      <point x="54" y="-16"/>
      <point x="63" y="-36"/>
      <point x="79" y="-53" type="curve"/>
      <point x="110" y="-75"/>
      <point x="116" y="-73"/>
      <point x="143" y="-43" type="curve"/>
      <point x="155" y="-26"/>
      <point x="167" y="-1"/>
      <point x="170" y="5" type="curve"/>
      <point x="177" y="17"/>
      <point x="188" y="47"/>
      <point x="201" y="76" type="curve"/>
      <point x="221" y="136"/>
      <point x="236" y="157"/>
      <point x="269" y="258" type="curve"/>
      <point x="284" y="295"/>
      <point x="297" y="337"/>
      <point x="304" y="350" type="curve"/>
      <point x="308" y="355"/>
      <point x="319" y="389"/>
      <point x="327" y="410" type="curve"/>
      <point x="334" y="427"/>
      <point x="346" y="451"/>
      <point x="346" y="451" type="curve"/>
      <point x="346" y="451"/>
      <point x="344" y="402"/>
      <point x="341" y="366" type="curve"/>
      <point x="336" y="333"/>
      <point x="335" y="283"/>
      <point x="334" y="252" type="curve"/>
      <point x="336" y="180"/>
      <point x="343" y="133"/>
      <point x="391" y="140" type="curve"/>
      <point x="416" y="143"/>
      <point x="438" y="154"/>
      <point x="451" y="165" type="curve"/>
      <point x="467" y="180"/>
      <point x="490" y="211"/>
      <point x="496" y="226" type="curve"/>
      <point x="519" y="289"/>
      <point x="559" y="309"/>
      <point x="623" y="413" type="curve"/>
      <point x="655" y="461"/>
      <point x="685" y="520"/>
      <point x="685" y="520" type="curve"/>
      <point x="685" y="520"/>
      <point x="668" y="447"/>
      <point x="659" y="419" type="curve"/>
      <point x="662" y="411"/>
      <point x="661" y="400"/>
      <point x="663" y="394" type="curve"/>
      <point x="663" y="389"/>
      <point x="657" y="372"/>
      <point x="652" y="352" type="curve"/>
      <point x="653" y="339"/>
      <point x="650" y="323"/>
      <point x="644" y="309" type="curve"/>
      <point x="641" y="294"/>
      <point x="642" y="281"/>
      <point x="638" y="268" type="curve"/>
      <point x="636" y="261"/>
      <point x="635" y="250"/>
      <point x="636" y="243" type="curve"/>
      <point x="638" y="231"/>
      <point x="639" y="213"/>
      <point x="635" y="196" type="curve"/>
      <point x="628" y="118"/>
      <point x="617" y="8"/>
      <point x="633" y="-34" type="curve"/>
      <point x="643" y="-66"/>
      <point x="667" y="-69"/>
    </contour>
  </outline>
</glyph>
<glyph name="O.ss02" format="2">
  <advance width="505"/>
  <outline>
    <contour>
      <point x="234" y="-26" type="curve"/>
      <point x="262" y="-34"/>
      <point x="327" y="-16"/>
      <point x="369" y="-1" type="curve"/>
      <point x="387" y="12"/>
      <point x="445" y="59"/>
      <point x="445" y="64" type="curve"/>
      <point x="445" y="69"/>
      <point x="448" y="70"/>
      <point x="448" y="70" type="curve"/>
      <point x="484" y="73"/>
      <point x="534" y="170"/>
      <point x="563" y="242" type="curve"/>
      <point x="566" y="251"/>
      <point x="590" y="311"/>
      <point x="592" y="317" type="curve"/>
      <point x="600" y="336"/>
      <point x="612" y="397"/>
      <point x="617" y="428" type="curve"/>
      <point x="620" y="468"/>
      <point x="624" y="517"/>
      <point x="610" y="539" type="curve"/>
      <point x="595" y="575"/>
      <point x="553" y="628"/>
      <point x="542" y="627" type="curve"/>
      <point x="542" y="627"/>
      <point x="536" y="627"/>
      <point x="536" y="633" type="curve"/>
      <point x="534" y="638"/>
      <point x="489" y="653"/>
      <point x="462" y="654" type="curve"/>
      <point x="448" y="653"/>
      <point x="431" y="652"/>
      <point x="424" y="650" type="curve"/>
      <point x="412" y="645" type="line" smooth="yes"/>
      <point x="406" y="641" type="line"/>
      <point x="367" y="619"/>
      <point x="275" y="549"/>
      <point x="202" y="415" type="curve"/>
      <point x="189" y="378"/>
      <point x="173" y="342"/>
      <point x="168" y="332" type="curve"/>
      <point x="163" y="322"/>
      <point x="162" y="320"/>
      <point x="158" y="323" type="curve"/>
      <point x="158" y="323"/>
      <point x="154" y="320"/>
      <point x="149" y="316" type="curve"/>
      <point x="145" y="312"/>
      <point x="142" y="309"/>
      <point x="137" y="301" type="curve"/>
      <point x="135" y="297"/>
      <point x="135" y="293"/>
      <point x="135" y="289" type="curve"/>
      <point x="136" y="279"/>
      <point x="136" y="270"/>
      <point x="128" y="261" type="curve"/>
      <point x="128" y="261"/>
      <point x="123" y="253"/>
      <point x="119" y="248" type="curve"/>
      <point x="116" y="244"/>
      <point x="114" y="241"/>
      <point x="110" y="236" type="curve"/>
      <point x="110" y="236"/>
      <point x="105" y="229"/>
      <point x="105" y="229" type="curve"/>
      <point x="105" y="217"/>
      <point x="102" y="202"/>
      <point x="97" y="180" type="curve"/>
      <point x="77" y="122"/>
      <point x="90" y="80"/>
      <point x="111" y="45" type="curve"/>
      <point x="123" y="19"/>
      <point x="197" y="-20"/>
    </contour>
    <contour>
      <point x="245" y="63" type="curve"/>
      <point x="234" y="64"/>
      <point x="214" y="71"/>
      <point x="202" y="84" type="curve"/>
      <point x="186" y="107"/>
      <point x="182" y="118"/>
      <point x="192" y="155" type="curve"/>
      <point x="204" y="203"/>
      <point x="265" y="360"/>
      <point x="299" y="411" type="curve"/>
      <point x="304" y="419"/>
      <point x="313" y="432"/>
      <point x="322" y="443" type="curve"/>
      <point x="330" y="448"/>
      <point x="336" y="455"/>
      <point x="339" y="460" type="curve"/>
      <point x="344" y="464"/>
      <point x="351" y="473"/>
      <point x="357" y="491" type="curve"/>
      <point x="394" y="539"/>
      <point x="438" y="565"/>
      <point x="457" y="554" type="curve"/>
      <point x="483" y="559"/>
      <point x="492" y="552"/>
      <point x="504" y="538" type="curve"/>
      <point x="504" y="538" type="line" smooth="yes"/>
      <point x="504" y="538" type="line"/>
      <point x="511" y="520"/>
      <point x="539" y="452"/>
      <point x="530" y="444" type="curve"/>
      <point x="526" y="440"/>
      <point x="525" y="437"/>
      <point x="531" y="433" type="curve"/>
      <point x="533" y="431"/>
      <point x="532" y="429"/>
      <point x="527" y="427" type="curve"/>
      <point x="527" y="427"/>
      <point x="523" y="422"/>
      <point x="523" y="394" type="curve"/>
      <point x="524" y="380"/>
      <point x="521" y="378"/>
      <point x="518" y="375" type="curve"/>
      <point x="518" y="375"/>
      <point x="514" y="370"/>
      <point x="508" y="363" type="curve"/>
      <point x="507" y="331"/>
      <point x="483" y="256"/>
      <point x="476" y="250" type="curve"/>
      <point x="471" y="246"/>
      <point x="458" y="213"/>
      <point x="456" y="197" type="curve"/>
      <point x="456" y="197"/>
      <point x="449" y="197"/>
      <point x="441" y="187" type="curve"/>
      <point x="435" y="182"/>
      <point x="429" y="171"/>
      <point x="429" y="171" type="curve"/>
      <point x="426" y="167"/>
      <point x="424" y="164"/>
      <point x="422" y="159" type="curve"/>
      <point x="422" y="159"/>
      <point x="404" y="134"/>
      <point x="398" y="121" type="curve"/>
      <point x="348" y="65"/>
      <point x="320" y="61"/>
    </contour>
  </outline>
</glyph>
<glyph name="Pe-cy.ss02" format="2">
  <advance width="670"/>
  <outline>
    <contour>
      <point x="189" y="-70" type="curve" smooth="yes"/>
      <point x="206" y="-29"/>
      <point x="224" y="52"/>
      <point x="233" y="99" type="curve"/>
      <point x="241" y="112"/>
      <point x="241" y="128"/>
      <point x="244" y="142" type="curve"/>
      <point x="266" y="207"/>
      <point x="291" y="273"/>
      <point x="312" y="340" type="curve" smooth="yes"/>
      <point x="318" y="360"/>
      <point x="329" y="379"/>
      <point x="337" y="399" type="curve" smooth="yes"/>
      <point x="342" y="413"/>
      <point x="347" y="428"/>
      <point x="351" y="442" type="curve" smooth="yes"/>
      <point x="363" y="482"/>
      <point x="394" y="543"/>
      <point x="417" y="583" type="curve" smooth="yes"/>
      <point x="419" y="586"/>
      <point x="420" y="588"/>
      <point x="422" y="591" type="curve"/>
      <point x="436" y="592"/>
      <point x="445" y="591"/>
      <point x="455" y="591" type="curve" smooth="yes"/>
      <point x="478" y="591"/>
      <point x="500" y="597"/>
      <point x="522" y="596" type="curve" smooth="yes"/>
      <point x="537" y="596"/>
      <point x="563" y="595"/>
      <point x="590" y="594" type="curve" smooth="yes"/>
      <point x="623" y="592"/>
      <point x="659" y="590"/>
      <point x="675" y="587" type="curve"/>
      <point x="674" y="580" type="line"/>
      <point x="668" y="559"/>
      <point x="650" y="526"/>
      <point x="644" y="503" type="curve" smooth="yes"/>
      <point x="635" y="472"/>
      <point x="627" y="442"/>
      <point x="617" y="412" type="curve" smooth="yes"/>
      <point x="607" y="382"/>
      <point x="597" y="353"/>
      <point x="585" y="324" type="curve" smooth="yes"/>
      <point x="558" y="257"/>
      <point x="541" y="187"/>
      <point x="524" y="117" type="curve" smooth="yes"/>
      <point x="517" y="87"/>
      <point x="484" y="9"/>
      <point x="490" y="-17" type="curve" smooth="yes"/>
      <point x="497" y="-43"/>
      <point x="546" y="-59"/>
      <point x="570" y="-59" type="curve"/>
      <point x="588" y="25"/>
      <point x="610" y="108"/>
      <point x="639" y="189" type="curve" smooth="yes"/>
      <point x="655" y="235"/>
      <point x="669" y="282"/>
      <point x="684" y="328" type="curve" smooth="yes"/>
      <point x="688" y="342"/>
      <point x="692" y="355"/>
      <point x="697" y="369" type="curve" smooth="yes"/>
      <point x="706" y="395"/>
      <point x="716" y="421"/>
      <point x="727" y="446" type="curve"/>
      <point x="739" y="457"/>
      <point x="736" y="471"/>
      <point x="741" y="485" type="curve" smooth="yes"/>
      <point x="751" y="515"/>
      <point x="821" y="607"/>
      <point x="814" y="651" type="curve" smooth="yes"/>
      <point x="812" y="663"/>
      <point x="805" y="671"/>
      <point x="790" y="674" type="curve" smooth="yes"/>
      <point x="757" y="682"/>
      <point x="723" y="684"/>
      <point x="688" y="685" type="curve" smooth="yes"/>
      <point x="655" y="686"/>
      <point x="621" y="685"/>
      <point x="588" y="685" type="curve" smooth="yes"/>
      <point x="541" y="685"/>
      <point x="529" y="698"/>
      <point x="422" y="691" type="curve"/>
      <point x="409" y="697"/>
      <point x="396" y="708"/>
      <point x="383" y="708" type="curve" smooth="yes"/>
      <point x="374" y="709"/>
      <point x="365" y="705"/>
      <point x="358" y="691" type="curve"/>
      <point x="332" y="690"/>
      <point x="306" y="696"/>
      <point x="286" y="674" type="curve" smooth="yes"/>
      <point x="266" y="651"/>
      <point x="254" y="600"/>
      <point x="295" y="592" type="curve" smooth="yes"/>
      <point x="301" y="591"/>
      <point x="307" y="590"/>
      <point x="313" y="589" type="curve"/>
      <point x="303" y="568"/>
      <point x="280" y="521"/>
      <point x="260" y="476" type="curve" smooth="yes"/>
      <point x="242" y="434"/>
      <point x="226" y="394"/>
      <point x="224" y="376" type="curve" smooth="yes"/>
      <point x="221" y="358"/>
      <point x="207" y="346"/>
      <point x="207" y="324" type="curve"/>
      <point x="203" y="316"/>
      <point x="199" y="308"/>
      <point x="196" y="299" type="curve" smooth="yes"/>
      <point x="167" y="215"/>
      <point x="142" y="117"/>
      <point x="120" y="27" type="curve" smooth="yes"/>
      <point x="117" y="12"/>
      <point x="113" y="-2"/>
      <point x="110" y="-16" type="curve" smooth="yes"/>
      <point x="96" y="-73"/>
      <point x="177" y="-97"/>
    </contour>
  </outline>
</glyph>
<glyph name="Tse-cy.ss01" format="2">
  <advance width="719"/>
  <outline>
    <contour>
      <point x="542" y="-208" type="curve"/>
      <point x="571" y="-227" type="line"/>
      <point x="589" y="-229"/>
      <point x="605" y="-227"/>
      <point x="622" y="-223" type="curve"/>
      <point x="629" y="-196"/>
      <point x="647" y="-160"/>
      <point x="659" y="-134" type="curve" smooth="yes"/>
      <point x="661" y="-129"/>
      <point x="664" y="-123"/>
      <point x="667" y="-116" type="curve" smooth="yes"/>
      <point x="697" y="-55"/>
      <point x="744" y="43"/>
      <point x="656" y="75" type="curve" smooth="yes"/>
      <point x="643" y="80"/>
      <point x="632" y="83"/>
      <point x="620" y="85" type="curve" smooth="yes"/>
      <point x="614" y="86"/>
      <point x="608" y="86"/>
      <point x="601" y="86" type="curve"/>
      <point x="608" y="106"/>
      <point x="609" y="127"/>
      <point x="619" y="147" type="curve"/>
      <point x="623" y="188"/>
      <point x="646" y="222"/>
      <point x="655" y="261" type="curve" smooth="yes"/>
      <point x="671" y="333"/>
      <point x="694" y="399"/>
      <point x="721" y="467" type="curve" smooth="yes"/>
      <point x="729" y="487"/>
      <point x="751" y="537"/>
      <point x="764" y="580" type="curve" smooth="yes"/>
      <point x="773" y="606"/>
      <point x="777" y="630"/>
      <point x="772" y="641" type="curve" smooth="yes"/>
      <point x="766" y="655"/>
      <point x="719" y="679"/>
      <point x="704" y="675" type="curve" smooth="yes"/>
      <point x="695" y="673"/>
      <point x="687" y="663"/>
      <point x="680" y="651" type="curve" smooth="yes"/>
      <point x="665" y="625"/>
      <point x="655" y="586"/>
      <point x="651" y="573" type="curve" smooth="yes"/>
      <point x="631" y="519"/>
      <point x="589" y="414"/>
      <point x="577" y="362" type="curve" smooth="yes"/>
      <point x="570" y="333"/>
      <point x="570" y="322"/>
      <point x="557" y="293" type="curve" smooth="yes"/>
      <point x="547" y="271"/>
      <point x="544" y="247"/>
      <point x="534" y="225" type="curve"/>
      <point x="533" y="222"/>
      <point x="528" y="209"/>
      <point x="525" y="196" type="curve"/>
      <point x="517" y="170"/>
      <point x="503" y="112"/>
      <point x="493" y="79" type="curve"/>
      <point x="477" y="79"/>
      <point x="454" y="81"/>
      <point x="439" y="77" type="curve" smooth="yes"/>
      <point x="429" y="74"/>
      <point x="421" y="74"/>
      <point x="411" y="74" type="curve" smooth="yes"/>
      <point x="396" y="74"/>
      <point x="383" y="68"/>
      <point x="369" y="68" type="curve" smooth="yes"/>
      <point x="336" y="68"/>
      <point x="287" y="63"/>
      <point x="255" y="73" type="curve" smooth="yes"/>
      <point x="244" y="77"/>
      <point x="246" y="100"/>
      <point x="248" y="108" type="curve" smooth="yes"/>
      <point x="273" y="226"/>
      <point x="322" y="339"/>
      <point x="368" y="450" type="curve" smooth="yes"/>
      <point x="374" y="464"/>
      <point x="375" y="475"/>
      <point x="385" y="487" type="curve"/>
      <point x="387" y="512"/>
      <point x="406" y="532"/>
      <point x="414" y="556" type="curve"/>
      <point x="421" y="572"/>
      <point x="430" y="588"/>
      <point x="437" y="605" type="curve" smooth="yes"/>
      <point x="443" y="619"/>
      <point x="446" y="634"/>
      <point x="443" y="649" type="curve"/>
      <point x="418" y="674"/>
      <point x="406" y="686"/>
      <point x="387" y="689" type="curve"/>
      <point x="368" y="694"/>
      <point x="347" y="679"/>
      <point x="347" y="659" type="curve" smooth="yes"/>
      <point x="347" y="646"/>
      <point x="302" y="558"/>
      <point x="296" y="543" type="curve" smooth="yes"/>
      <point x="269" y="482"/>
      <point x="242" y="419"/>
      <point x="218" y="356" type="curve"/>
      <point x="209" y="336"/>
      <point x="203" y="314"/>
      <point x="196" y="294" type="curve" smooth="yes"/>
      <point x="180" y="248"/>
      <point x="164" y="204"/>
      <point x="153" y="158" type="curve" smooth="yes"/>
      <point x="151" y="148"/>
      <point x="149" y="138"/>
      <point x="147" y="127" type="curve"/>
      <point x="144" y="116"/>
      <point x="144" y="105"/>
      <point x="145" y="96" type="curve" smooth="yes"/>
      <point x="149" y="63"/>
      <point x="172" y="38"/>
      <point x="188" y="9" type="curve"/>
      <point x="194" y="8"/>
      <point x="226" y="-13"/>
      <point x="232" y="-18" type="curve"/>
      <point x="253" y="-18"/>
      <point x="290" y="-25"/>
      <point x="314" y="-27" type="curve" smooth="yes"/>
      <point x="326" y="-28"/>
      <point x="340" y="-28"/>
      <point x="355" y="-28" type="curve" smooth="yes"/>
      <point x="390" y="-27"/>
      <point x="432" y="-23"/>
      <point x="469" y="-18" type="curve" smooth="yes"/>
      <point x="484" y="-16"/>
      <point x="499" y="-13"/>
      <point x="511" y="-11" type="curve"/>
      <point x="513" y="-12"/>
      <point x="519" y="-12"/>
      <point x="528" y="-11" type="curve" smooth="yes"/>
      <point x="552" y="-11"/>
      <point x="591" y="-9"/>
      <point x="600" y="-9" type="curve"/>
      <point x="598" y="-34"/>
      <point x="583" y="-75"/>
      <point x="569" y="-94" type="curve" smooth="yes"/>
      <point x="561" y="-105"/>
      <point x="558" y="-114"/>
      <point x="555" y="-127" type="curve" smooth="yes"/>
      <point x="548" y="-160"/>
      <point x="528" y="-170"/>
    </contour>
  </outline>
</glyph>
<glyph name="X.ss01" format="2">
  <advance width="524"/>
  <outline>
    <contour>
      <point x="530" y="-74" type="curve"/>
      <point x="530" y="-74"/>
      <point x="535" y="-74"/>
      <point x="545" y="-74" type="curve"/>
      <point x="576" y="-56"/>
      <point x="596" y="-30"/>
      <point x="560" y="52" type="curve"/>
      <point x="545" y="92"/>
      <point x="529" y="133"/>
      <point x="529" y="133" type="curve"/>
      <point x="529" y="138"/>
      <point x="519" y="163"/>
      <point x="504" y="198" type="curve"/>
      <point x="484" y="259"/>
      <point x="479" y="257"/>
      <point x="459" y="302" type="curve"/>
      <point x="453" y="312"/>
      <point x="440" y="344"/>
      <point x="435" y="354" type="curve"/>
      <point x="429" y="370" type="line"/>
      <point x="476" y="413" type="line"/>
      <point x="532" y="476"/>
      <point x="547" y="492"/>
      <point x="598" y="532" type="curve"/>
      <point x="623" y="547"/>
      <point x="627" y="562"/>
      <point x="627" y="573" type="curve"/>
      <point x="621" y="597"/>
      <point x="596" y="622"/>
      <point x="581" y="622" type="curve"/>
      <point x="566" y="622"/>
      <point x="504" y="572"/>
      <point x="504" y="562" type="curve"/>
      <point x="504" y="562"/>
      <point x="494" y="552"/>
      <point x="484" y="546" type="curve"/>
      <point x="474" y="539"/>
      <point x="449" y="512"/>
      <point x="429" y="489" type="curve"/>
      <point x="401" y="448" type="line"/>
      <point x="382" y="496" type="line"/>
      <point x="372" y="522"/>
      <point x="352" y="567"/>
      <point x="347" y="583" type="curve"/>
      <point x="337" y="607"/>
      <point x="326" y="627"/>
      <point x="321" y="627" type="curve"/>
      <point x="315" y="644"/>
      <point x="272" y="656"/>
      <point x="257" y="651" type="curve"/>
      <point x="225" y="640"/>
      <point x="230" y="602"/>
      <point x="245" y="575" type="curve"/>
      <point x="265" y="547"/>
      <point x="334" y="395"/>
      <point x="334" y="385" type="curve"/>
      <point x="334" y="370"/>
      <point x="329" y="365"/>
      <point x="324" y="359" type="curve"/>
      <point x="319" y="344"/>
      <point x="307" y="350"/>
      <point x="296" y="335" type="curve"/>
      <point x="286" y="325"/>
      <point x="271" y="305"/>
      <point x="261" y="295" type="curve"/>
      <point x="241" y="260"/>
      <point x="241" y="260"/>
      <point x="216" y="224" type="curve"/>
      <point x="205" y="214"/>
      <point x="195" y="199"/>
      <point x="195" y="199" type="curve"/>
      <point x="185" y="189"/>
      <point x="124" y="88"/>
      <point x="114" y="70" type="curve"/>
      <point x="103" y="43"/>
      <point x="118" y="-15"/>
      <point x="138" y="-21" type="curve"/>
      <point x="148" y="-21"/>
      <point x="179" y="-13"/>
      <point x="189" y="11" type="curve"/>
      <point x="215" y="48"/>
      <point x="216" y="65"/>
      <point x="221" y="80" type="curve"/>
      <point x="226" y="91"/>
      <point x="237" y="109"/>
      <point x="242" y="116" type="curve"/>
      <point x="252" y="126"/>
      <point x="257" y="136"/>
      <point x="252" y="136" type="curve"/>
      <point x="262" y="141"/>
      <point x="297" y="191"/>
      <point x="339" y="252" type="curve"/>
      <point x="349" y="262"/>
      <point x="347" y="280"/>
      <point x="357" y="285" type="curve"/>
      <point x="365" y="304" type="line"/>
      <point x="370" y="284" type="line"/>
      <point x="375" y="279"/>
      <point x="380" y="269"/>
      <point x="380" y="269" type="curve"/>
      <point x="385" y="269"/>
      <point x="385" y="259"/>
      <point x="385" y="254" type="curve"/>
      <point x="385" y="244"/>
      <point x="395" y="229"/>
      <point x="400" y="218" type="curve"/>
      <point x="400" y="218"/>
      <point x="410" y="198"/>
      <point x="416" y="183" type="curve"/>
      <point x="437" y="128"/>
      <point x="442" y="118"/>
      <point x="447" y="106" type="curve"/>
      <point x="447" y="106"/>
      <point x="452" y="88"/>
      <point x="457" y="77" type="curve"/>
      <point x="462" y="67"/>
      <point x="467" y="56"/>
      <point x="467" y="49" type="curve"/>
      <point x="467" y="49"/>
      <point x="472" y="37"/>
      <point x="472" y="27" type="curve"/>
      <point x="477" y="17"/>
      <point x="487" y="0"/>
      <point x="487" y="-12" type="curve"/>
      <point x="492" y="-23"/>
      <point x="497" y="-33"/>
      <point x="492" y="-38" type="curve"/>
      <point x="497" y="-50"/>
      <point x="497" y="-55"/>
      <point x="502" y="-55" type="curve"/>
      <point x="507" y="-50"/>
      <point x="535" y="-68"/>
    </contour>
  </outline>
</glyph>
<glyph name="Ze-cy.ss01" format="2">
  <advance width="540"/>
  <outline>
    <contour>
      <point x="298" y="-67" type="curve" smooth="yes"/>
      <point x="309" y="-67.0"/>
      <point x="319" y="-67.0"/>
      <point x="330" y="-67" type="curve"/>
      <point x="357" y="-54"/>
      <point x="377" y="-55"/>
      <point x="379" y="-55" type="curve"/>
      <point x="416" y="-41"/>
      <point x="455" y="-15"/>
      <point x="481" y="9" type="curve" smooth="yes"/>
      <point x="491" y="19"/>
      <point x="500" y="29"/>
      <point x="505" y="38" type="curve"/>
      <point x="536" y="84"/>
      <point x="540" y="124"/>
      <point x="540" y="179" type="curve" smooth="yes"/>
      <point x="540" y="235"/>
      <point x="519" y="271"/>
      <point x="477" y="306" type="curve"/>
      <point x="524" y="335"/>
      <point x="566" y="363"/>
      <point x="595" y="399" type="curve" smooth="yes"/>
      <point x="621" y="432"/>
      <point x="637" y="472"/>
      <point x="637" y="527" type="curve" smooth="yes"/>
      <point x="637" y="586"/>
      <point x="612" y="639"/>
      <point x="569" y="670" type="curve" smooth="yes"/>
      <point x="556" y="680"/>
      <point x="541" y="687"/>
      <point x="525" y="692" type="curve" smooth="yes"/>
      <point x="510" y="697"/>
      <point x="494" y="699"/>
      <point x="477" y="699" type="curve" smooth="yes"/>
      <point x="469" y="699"/>
      <point x="458" y="698"/>
      <point x="445" y="696" type="curve" smooth="yes"/>
      <point x="425" y="692"/>
      <point x="403" y="687"/>
      <point x="392" y="682" type="curve" smooth="yes"/>
      <point x="374" y="674"/>
      <point x="357" y="664"/>
      <point x="341" y="653" type="curve" smooth="yes"/>
      <point x="298" y="620"/>
      <point x="266" y="573"/>
      <point x="247" y="523" type="curve"/>
      <point x="266" y="492"/>
      <point x="274" y="481"/>
      <point x="304" y="461" type="curve"/>
      <point x="328" y="472"/>
      <point x="343" y="492"/>
      <point x="352" y="516" type="curve" smooth="yes"/>
      <point x="370" y="562"/>
      <point x="433" y="596"/>
      <point x="488" y="596" type="curve" smooth="yes"/>
      <point x="505" y="596"/>
      <point x="523" y="592"/>
      <point x="538" y="583" type="curve"/>
      <point x="542" y="572"/>
      <point x="545" y="561"/>
      <point x="545" y="549" type="curve" smooth="yes"/>
      <point x="545" y="464"/>
      <point x="436" y="395"/>
      <point x="369" y="365" type="curve" smooth="yes"/>
      <point x="354" y="358"/>
      <point x="338" y="360"/>
      <point x="323" y="354" type="curve"/>
      <point x="304" y="361"/>
      <point x="268" y="347"/>
      <point x="268" y="319" type="curve" smooth="yes"/>
      <point x="268" y="303"/>
      <point x="277" y="288"/>
      <point x="295" y="266" type="curve"/>
      <point x="297" y="263"/>
      <point x="305" y="256"/>
      <point x="314" y="254" type="curve"/>
      <point x="335" y="245"/>
      <point x="336" y="250"/>
      <point x="356" y="250" type="curve" smooth="yes"/>
      <point x="385" y="250"/>
      <point x="405" y="238"/>
      <point x="418" y="220" type="curve" smooth="yes"/>
      <point x="422" y="215"/>
      <point x="425" y="210"/>
      <point x="427" y="204" type="curve" smooth="yes"/>
      <point x="434" y="188"/>
      <point x="437" y="169"/>
      <point x="437" y="150" type="curve" smooth="yes"/>
      <point x="437" y="54"/>
      <point x="256" y="-13"/>
      <point x="197" y="61" type="curve"/>
      <point x="231" y="92"/>
      <point x="229.375" y="113.875"/>
      <point x="179" y="141" type="curve"/>
      <point x="145" y="141"/>
      <point x="96" y="99"/>
      <point x="96" y="65" type="curve" smooth="yes"/>
      <point x="96" y="29"/>
      <point x="165" y="-24"/>
      <point x="194" y="-43" type="curve" smooth="yes"/>
      <point x="225" y="-64"/>
      <point x="262" y="-67"/>
    </contour>
  </outline>
</glyph>
<glyph name="acutecomb.case" format="2">
  <advance width="496"/>
  <anchor x="532" y="785" name="_topUC"/>
  <outline>
    <contour>
      <point x="474" y="714" type="curve"/>
      <point x="488" y="705"/>
      <point x="505" y="707"/>
      <point x="518" y="728" type="curve"/>
      <point x="539" y="757"/>
      <point x="617" y="804"/>
      <point x="612" y="826" type="curve"/>
      <point x="611" y="857"/>
      <point x="586" y="880"/>
      <point x="569" y="874" type="curve" smooth="yes"/>
      <point x="539" y="863"/>
      <point x="463" y="779"/>
      <point x="461" y="767" type="curve"/>
      <point x="459" y="734"/>
      <point x="464" y="723"/>
    </contour>
  </outline>
</glyph>
<glyph name="caroncomb.case" format="2">
  <advance width="496"/>
  <anchor x="533" y="785" name="_topUC"/>
  <outline>
    <contour>
      <point x="535" y="720" type="curve"/>
      <point x="569" y="738"/>
      <point x="643" y="802"/>
      <point x="647" y="814" type="curve"/>
      <point x="656" y="833"/>
      <point x="641" y="875"/>
      <point x="605" y="853" type="curve"/>
      <point x="591" y="841"/>
      <point x="542" y="808"/>
      <point x="518" y="794" type="curve"/>
      <point x="497" y="812"/>
      <point x="474" y="832"/>
      <point x="465" y="845" type="curve"/>
      <point x="432" y="883"/>
      <point x="395" y="848"/>
      <point x="403" y="814" type="curve"/>
      <point x="412" y="795"/>
      <point x="471" y="742"/>
      <point x="491" y="722" type="curve"/>
      <point x="509" y="706"/>
      <point x="524" y="712"/>
    </contour>
  </outline>
</glyph>
<glyph name="circumflexcomb.case" format="2">
  <advance width="496"/>
  <anchor x="532" y="785" name="_topUC"/>
  <outline>
    <contour>
      <point x="461" y="727" type="curve"/>
      <point x="474" y="738"/>
      <point x="515" y="769"/>
      <point x="540" y="783" type="curve"/>
      <point x="560" y="766"/>
      <point x="583" y="741"/>
      <point x="592" y="733" type="curve"/>
      <point x="626" y="687"/>
      <point x="669" y="736"/>
      <point x="652" y="767" type="curve"/>
      <point x="637" y="787"/>
      <point x="591" y="833"/>
      <point x="567" y="853" type="curve"/>
      <point x="559" y="865"/>
      <point x="538" y="870"/>
      <point x="521" y="856" type="curve"/>
      <point x="493" y="841"/>
      <point x="424" y="778"/>
      <point x="416" y="768" type="curve"/>
      <point x="397" y="739"/>
      <point x="427" y="693"/>
    </contour>
  </outline>
</glyph>
<glyph name="dblgravecomb.case" format="2">
  <advance width="496"/>
  <anchor x="533" y="785" name="_topUC"/>
  <outline>
    <contour>
      <point x="414" y="705" type="curve"/>
      <point x="426" y="712"/>
      <point x="457" y="739"/>
      <point x="455" y="751" type="curve"/>
      <point x="455" y="759"/>
      <point x="417" y="869"/>
      <point x="391" y="885" type="curve"/>
      <point x="376" y="896"/>
      <point x="355" y="881"/>
      <point x="340" y="862" type="curve"/>
      <point x="320" y="836"/>
      <point x="371" y="777"/>
      <point x="387" y="736" type="curve"/>
      <point x="395" y="703"/>
      <point x="400" y="698"/>
    </contour>
    <contour>
      <point x="537" y="706" type="curve"/>
      <point x="562" y="724"/>
      <point x="577" y="743"/>
      <point x="576" y="749" type="curve"/>
      <point x="568" y="785"/>
      <point x="535" y="872"/>
      <point x="510" y="886" type="curve"/>
      <point x="500" y="893"/>
      <point x="482" y="889"/>
      <point x="460" y="860" type="curve"/>
      <point x="443" y="839"/>
      <point x="487" y="782"/>
      <point x="510" y="733" type="curve"/>
      <point x="518" y="701"/>
      <point x="522" y="699"/>
    </contour>
  </outline>
</glyph>
<glyph name="dieresiscomb.case" format="2">
  <advance width="496"/>
  <anchor x="534" y="785" name="_topUC"/>
  <outline>
    <contour>
      <point x="570" y="746" type="curve"/>
      <point x="588" y="726"/>
      <point x="612" y="717"/>
      <point x="639" y="758" type="curve"/>
      <point x="666" y="785"/>
      <point x="679" y="813"/>
      <point x="654" y="844" type="curve"/>
      <point x="643" y="865"/>
      <point x="618" y="876"/>
      <point x="603" y="860" type="curve"/>
      <point x="598" y="859"/>
      <point x="578" y="838"/>
      <point x="572" y="829" type="curve"/>
      <point x="567" y="824"/>
      <point x="556" y="795"/>
      <point x="554" y="788" type="curve" smooth="yes"/>
      <point x="552" y="782"/>
      <point x="560" y="755"/>
    </contour>
    <contour>
      <point x="426" y="736" type="curve" smooth="yes"/>
      <point x="449" y="721"/>
      <point x="467" y="735"/>
      <point x="488" y="763" type="curve"/>
      <point x="509" y="786"/>
      <point x="517" y="808"/>
      <point x="508" y="826" type="curve"/>
      <point x="501" y="847"/>
      <point x="478" y="879"/>
      <point x="452" y="862" type="curve"/>
      <point x="445" y="858"/>
      <point x="435" y="850"/>
      <point x="431" y="847" type="curve" smooth="yes"/>
      <point x="421" y="839"/>
      <point x="402" y="806"/>
      <point x="400" y="787" type="curve"/>
      <point x="397" y="778"/>
      <point x="407" y="749"/>
    </contour>
  </outline>
</glyph>
<glyph name="dotaccentcomb.case" format="2">
  <anchor x="535" y="785" name="_topUC"/>
  <anchor x="553" y="961" name="topUC"/>
  <outline>
    <contour>
      <point x="495" y="736" type="curve" smooth="yes"/>
      <point x="524" y="712"/>
      <point x="544" y="727"/>
      <point x="564" y="754" type="curve"/>
      <point x="591" y="786"/>
      <point x="602" y="804"/>
      <point x="580" y="843" type="curve"/>
      <point x="556" y="870"/>
      <point x="541" y="867"/>
      <point x="525" y="856" type="curve"/>
      <point x="520" y="855"/>
      <point x="515" y="847"/>
      <point x="511" y="844" type="curve" smooth="yes"/>
      <point x="488" y="825"/>
      <point x="478" y="789"/>
      <point x="476" y="782" type="curve"/>
      <point x="475" y="767"/>
      <point x="485" y="745"/>
    </contour>
  </outline>
</glyph>
<glyph name="dotbelowcomb" format="2">
  <advance width="353"/>
  <anchor x="135" y="-110" name="_bottom"/>
  <outline>
    <contour>
      <point x="93" y="-157" type="curve"/>
      <point x="115" y="-175"/>
      <point x="131" y="-173"/>
      <point x="170" y="-134" type="curve"/>
      <point x="191" y="-110"/>
      <point x="196" y="-97"/>
      <point x="177" y="-68" type="curve"/>
      <point x="162" y="-49"/>
      <point x="142" y="-41"/>
      <point x="126" y="-52" type="curve"/>
      <point x="121" y="-53"/>
      <point x="114" y="-56"/>
      <point x="105" y="-64" type="curve"/>
      <point x="96" y="-71"/>
      <point x="82" y="-97"/>
      <point x="75" y="-117" type="curve"/>
      <point x="74" y="-126"/>
      <point x="77" y="-140"/>
    </contour>
  </outline>
</glyph>
<glyph name="em-cy.ss02" format="2">
  <advance width="564"/>
  <outline>
    <contour>
      <point x="502" y="21" type="curve"/>
      <point x="505" y="20"/>
      <point x="509" y="19"/>
      <point x="512" y="18" type="curve"/>
      <point x="516" y="16"/>
      <point x="521" y="15"/>
      <point x="525" y="13" type="curve" smooth="yes"/>
      <point x="537" y="20"/>
      <point x="549" y="28"/>
      <point x="558" y="35" type="curve" smooth="yes"/>
      <point x="556" y="54"/>
      <point x="552" y="74"/>
      <point x="557" y="93" type="curve"/>
      <point x="558" y="96"/>
      <point x="558" y="99"/>
      <point x="559" y="102" type="curve" smooth="yes"/>
      <point x="561" y="107"/>
      <point x="563" y="112"/>
      <point x="565" y="119" type="curve" smooth="yes"/>
      <point x="582" y="165"/>
      <point x="613" y="248"/>
      <point x="613" y="303" type="curve" smooth="yes"/>
      <point x="613" y="325"/>
      <point x="608" y="342"/>
      <point x="597" y="352" type="curve" smooth="yes"/>
      <point x="583" y="364"/>
      <point x="557" y="380"/>
      <point x="539" y="370" type="curve" smooth="yes"/>
      <point x="493" y="347"/>
      <point x="449" y="292"/>
      <point x="402" y="232" type="curve" smooth="yes"/>
      <point x="384" y="208"/>
      <point x="365" y="183"/>
      <point x="345" y="160" type="curve"/>
      <point x="343" y="161"/>
      <point x="342" y="162"/>
      <point x="340" y="163" type="curve"/>
      <point x="350" y="182"/>
      <point x="359" y="201"/>
      <point x="368" y="220" type="curve" smooth="yes"/>
      <point x="389" y="268"/>
      <point x="402" y="313"/>
      <point x="387" y="338" type="curve"/>
      <point x="384" y="343"/>
      <point x="382" y="347"/>
      <point x="379" y="352" type="curve" smooth="yes"/>
      <point x="363" y="359"/>
      <point x="350" y="366"/>
      <point x="332" y="370" type="curve" smooth="yes"/>
      <point x="328" y="369"/>
      <point x="324" y="367"/>
      <point x="320" y="365" type="curve" smooth="yes"/>
      <point x="239" y="331"/>
      <point x="149" y="216"/>
      <point x="117" y="142" type="curve" smooth="yes"/>
      <point x="113" y="132"/>
      <point x="103" y="124"/>
      <point x="101" y="111" type="curve"/>
      <point x="90" y="100"/>
      <point x="85" y="87"/>
      <point x="81" y="73" type="curve" smooth="yes"/>
      <point x="87" y="58"/>
      <point x="102" y="31"/>
      <point x="120" y="25" type="curve" smooth="yes"/>
      <point x="123.0" y="24"/>
      <point x="127.0" y="23.0"/>
      <point x="131" y="24" type="curve"/>
      <point x="133" y="24"/>
      <point x="136" y="25"/>
      <point x="138" y="25" type="curve" smooth="yes"/>
      <point x="139" y="26"/>
      <point x="140" y="27"/>
      <point x="142" y="27" type="curve" smooth="yes"/>
      <point x="169" y="46"/>
      <point x="174" y="75"/>
      <point x="187" y="102" type="curve" smooth="yes"/>
      <point x="216" y="158"/>
      <point x="252" y="209"/>
      <point x="297" y="253" type="curve"/>
      <point x="299" y="252"/>
      <point x="300" y="251"/>
      <point x="302" y="250" type="curve" smooth="yes"/>
      <point x="286" y="203"/>
      <point x="254" y="143"/>
      <point x="258" y="94" type="curve" smooth="yes"/>
      <point x="282" y="52"/>
      <point x="318" y="40"/>
      <point x="349" y="68" type="curve"/>
      <point x="358" y="76"/>
      <point x="366" y="84"/>
      <point x="375" y="92" type="curve" smooth="yes"/>
      <point x="397" y="112"/>
      <point x="418" y="133"/>
      <point x="436" y="158" type="curve" smooth="yes"/>
      <point x="443" y="168"/>
      <point x="459" y="192"/>
      <point x="473" y="210" type="curve" smooth="yes"/>
      <point x="480" y="219"/>
      <point x="487" y="227"/>
      <point x="492" y="231" type="curve" smooth="yes"/>
      <point x="503" y="239"/>
      <point x="514" y="258"/>
      <point x="526" y="266" type="curve"/>
      <point x="515" y="229"/>
      <point x="502" y="190"/>
      <point x="490" y="154" type="curve" smooth="yes"/>
      <point x="484" y="133"/>
      <point x="478" y="113"/>
      <point x="473" y="94" type="curve" smooth="yes"/>
      <point x="485" y="70"/>
      <point x="462" y="51"/>
      <point x="493" y="26" type="curve" smooth="yes"/>
      <point x="495" y="26"/>
      <point x="499" y="23"/>
    </contour>
  </outline>
</glyph>
<glyph name="en-cy.ss01" format="2">
  <advance width="444"/>
  <outline>
    <contour>
      <point x="375" y="-3" type="curve" smooth="yes"/>
      <point x="388" y="5"/>
      <point x="394" y="18"/>
      <point x="396" y="33" type="curve" smooth="yes"/>
      <point x="399" y="55"/>
      <point x="411" y="78"/>
      <point x="415" y="100" type="curve" smooth="yes"/>
      <point x="428" y="169"/>
      <point x="460" y="236"/>
      <point x="486" y="301" type="curve" smooth="yes"/>
      <point x="491" y="313"/>
      <point x="491" y="327"/>
      <point x="496" y="339" type="curve" smooth="yes"/>
      <point x="489" y="374"/>
      <point x="463" y="378"/>
      <point x="434" y="389" type="curve" smooth="yes"/>
      <point x="418" y="380"/>
      <point x="405" y="367"/>
      <point x="401" y="348" type="curve" smooth="yes"/>
      <point x="392" y="303"/>
      <point x="373" y="259"/>
      <point x="355" y="217" type="curve" smooth="yes"/>
      <point x="350" y="222"/>
      <point x="345" y="225"/>
      <point x="339" y="228" type="curve"/>
      <point x="317.355" y="228.0"/>
      <point x="287" y="228"/>
      <point x="274" y="228" type="curve" smooth="yes"/>
      <point x="267" y="224"/>
      <point x="258" y="222"/>
      <point x="250" y="221" type="curve"/>
      <point x="252" y="226"/>
      <point x="253" y="230"/>
      <point x="255" y="235" type="curve"/>
      <point x="268" y="270"/>
      <point x="282" y="305"/>
      <point x="295" y="340" type="curve" smooth="yes"/>
      <point x="315" y="370"/>
      <point x="268" y="409"/>
      <point x="238" y="408" type="curve" smooth="yes"/>
      <point x="225" y="408"/>
      <point x="215" y="401"/>
      <point x="214" y="384" type="curve" smooth="yes"/>
      <point x="212" y="370"/>
      <point x="188" y="307"/>
      <point x="170" y="264" type="curve" smooth="yes"/>
      <point x="161" y="242"/>
      <point x="153" y="226"/>
      <point x="151" y="223" type="curve" smooth="yes"/>
      <point x="151" y="210"/>
      <point x="147" y="197"/>
      <point x="142" y="183" type="curve" smooth="yes"/>
      <point x="131" y="153"/>
      <point x="114" y="120"/>
      <point x="114" y="88" type="curve" smooth="yes"/>
      <point x="114" y="72"/>
      <point x="118" y="57"/>
      <point x="129" y="42" type="curve" smooth="yes"/>
      <point x="157" y="33"/>
      <point x="163" y="32"/>
      <point x="192" y="36" type="curve" smooth="yes"/>
      <point x="207" y="64"/>
      <point x="210" y="106"/>
      <point x="217" y="135" type="curve"/>
      <point x="221" y="133"/>
      <point x="226" y="130"/>
      <point x="230" y="128" type="curve" smooth="yes"/>
      <point x="251" y="133"/>
      <point x="271" y="136"/>
      <point x="292" y="140" type="curve" smooth="yes"/>
      <point x="305" y="142"/>
      <point x="317" y="144"/>
      <point x="329" y="147" type="curve" smooth="yes"/>
      <point x="331" y="148"/>
      <point x="334" y="148"/>
      <point x="336" y="149" type="curve" smooth="yes"/>
      <point x="319" y="106"/>
      <point x="295" y="52"/>
      <point x="322" y="8" type="curve"/>
      <point x="365" y="-8"/>
      <point x="358" y="-4"/>
    </contour>
  </outline>
</glyph>
<glyph name="g.ss02" format="2">
  <advance width="364"/>
  <outline>
    <contour>
      <point x="231" y="-197" type="curve" smooth="yes"/>
      <point x="262" y="-181"/>
      <point x="292" y="-125"/>
      <point x="321" y="-7" type="curve" smooth="yes"/>
      <point x="326" y="12"/>
      <point x="331" y="33"/>
      <point x="335" y="56" type="curve" smooth="yes"/>
      <point x="339" y="76" type="line"/>
      <point x="339" y="79"/>
      <point x="343" y="91"/>
      <point x="347" y="104" type="curve"/>
      <point x="351" y="115" type="line"/>
      <point x="351" y="117"/>
      <point x="350" y="120"/>
      <point x="352" y="126" type="curve" smooth="yes"/>
      <point x="354" y="132"/>
      <point x="359" y="138"/>
      <point x="360" y="147" type="curve" smooth="yes"/>
      <point x="361" y="154"/>
      <point x="366" y="159"/>
      <point x="366" y="160" type="curve"/>
      <point x="368" y="167"/>
      <point x="369" y="173"/>
      <point x="371" y="180" type="curve"/>
      <point x="377" y="204"/>
      <point x="385" y="212"/>
      <point x="393" y="216" type="curve" smooth="yes"/>
      <point x="396" y="217"/>
      <point x="399" y="218"/>
      <point x="401" y="218" type="curve" smooth="yes"/>
      <point x="406" y="219"/>
      <point x="410" y="219"/>
      <point x="413" y="222" type="curve" smooth="yes"/>
      <point x="419" y="225"/>
      <point x="429" y="241"/>
      <point x="429" y="263" type="curve" smooth="yes"/>
      <point x="429" y="290"/>
      <point x="421" y="314"/>
      <point x="410" y="335" type="curve" smooth="yes"/>
      <point x="393" y="365"/>
      <point x="368" y="386"/>
      <point x="346" y="391" type="curve"/>
      <point x="339" y="396"/>
      <point x="331" y="397"/>
      <point x="326" y="397" type="curve" smooth="yes"/>
      <point x="283" y="397"/>
      <point x="197" y="350"/>
      <point x="159" y="313" type="curve"/>
      <point x="117" y="264"/>
      <point x="96" y="204"/>
      <point x="96" y="184" type="curve" smooth="yes"/>
      <point x="96" y="161"/>
      <point x="97" y="140"/>
      <point x="115" y="123" type="curve" smooth="yes"/>
      <point x="130" y="109"/>
      <point x="154" y="100"/>
      <point x="168" y="100" type="curve" smooth="yes"/>
      <point x="173" y="100"/>
      <point x="180" y="97"/>
      <point x="197" y="102" type="curve" smooth="yes"/>
      <point x="207" y="104"/>
      <point x="220" y="109"/>
      <point x="238" y="118" type="curve" smooth="yes"/>
      <point x="246" y="122"/>
      <point x="254" y="126"/>
      <point x="262" y="130" type="curve" smooth="yes"/>
      <point x="266" y="132"/>
      <point x="270" y="134"/>
      <point x="273" y="134" type="curve"/>
      <point x="264" y="107"/>
      <point x="249" y="41"/>
      <point x="234" y="-25" type="curve" smooth="yes"/>
      <point x="231" y="-38" type="line" smooth="yes"/>
      <point x="225" y="-66"/>
      <point x="216" y="-88"/>
      <point x="206" y="-103" type="curve" smooth="yes"/>
      <point x="193" y="-117"/>
      <point x="178" y="-122"/>
      <point x="159" y="-114" type="curve" smooth="yes"/>
      <point x="146" y="-109"/>
      <point x="132" y="-99"/>
      <point x="117" y="-85" type="curve"/>
      <point x="117" y="-77"/>
      <point x="82" y="-69"/>
      <point x="64" y="-81" type="curve" smooth="yes"/>
      <point x="50" y="-90"/>
      <point x="66" y="-128"/>
      <point x="84" y="-148" type="curve" smooth="yes"/>
      <point x="118" y="-186"/>
      <point x="194" y="-216"/>
    </contour>
    <contour>
      <point x="172" y="191" type="curve" smooth="yes"/>
      <point x="171" y="211"/>
      <point x="184" y="219"/>
      <point x="197" y="239" type="curve" smooth="yes"/>
      <point x="200" y="243"/>
      <point x="202" y="247"/>
      <point x="205" y="252" type="curve"/>
      <point x="197" y="255"/>
      <point x="210" y="245"/>
      <point x="237" y="281" type="curve"/>
      <point x="268" y="301"/>
      <point x="294" y="313"/>
      <point x="321" y="313" type="curve"/>
      <point x="341" y="312"/>
      <point x="342" y="304"/>
      <point x="336" y="283" type="curve" smooth="yes"/>
      <point x="329" y="257"/>
      <point x="309" y="233"/>
      <point x="287" y="214" type="curve" smooth="yes"/>
      <point x="229" y="163"/>
      <point x="174" y="162"/>
    </contour>
  </outline>
</glyph>
<glyph name="ge-cy.ss02" format="2">
  <advance width="305"/>
  <outline>
    <contour>
      <point x="192" y="28" type="curve"/>
      <point x="204" y="81"/>
      <point x="219" y="148"/>
      <point x="235" y="187" type="curve" smooth="yes"/>
      <point x="238" y="194"/>
      <point x="258" y="260"/>
      <point x="270" y="297" type="curve"/>
      <point x="295" y="315"/>
      <point x="330" y="308"/>
      <point x="358" y="307" type="curve"/>
      <point x="370" y="307"/>
      <point x="379" y="309"/>
      <point x="390" y="304" type="curve"/>
      <point x="398" y="310"/>
      <point x="406" y="316"/>
      <point x="414" y="322" type="curve"/>
      <point x="422" y="353"/>
      <point x="411" y="372"/>
      <point x="392" y="383" type="curve" smooth="yes"/>
      <point x="351" y="406"/>
      <point x="269" y="392"/>
      <point x="235" y="375" type="curve"/>
      <point x="236" y="375"/>
      <point x="236" y="374"/>
      <point x="237" y="374" type="curve"/>
      <point x="226" y="378"/>
      <point x="217" y="377"/>
      <point x="206" y="375" type="curve"/>
      <point x="199" y="372"/>
      <point x="180" y="350"/>
      <point x="174" y="344" type="curve" smooth="yes"/>
      <point x="149" y="318"/>
      <point x="167" y="313"/>
      <point x="167" y="286" type="curve" smooth="yes"/>
      <point x="167" y="260"/>
      <point x="132" y="165"/>
      <point x="125" y="146" type="curve"/>
      <point x="128.0" y="121.0"/>
      <point x="114.0" y="93.0909090909091"/>
      <point x="114" y="68" type="curve" smooth="yes"/>
      <point x="114" y="51"/>
      <point x="120" y="37"/>
      <point x="143" y="28" type="curve" smooth="yes"/>
      <point x="159" y="22"/>
      <point x="176" y="24"/>
    </contour>
  </outline>
</glyph>
<glyph name="gravecomb.case" format="2">
  <advance width="496"/>
  <anchor x="533" y="785" name="_topUC"/>
  <outline>
    <contour>
      <point x="538" y="704" type="curve"/>
      <point x="561" y="712"/>
      <point x="585" y="742"/>
      <point x="584" y="748" type="curve"/>
      <point x="584" y="763"/>
      <point x="544" y="868"/>
      <point x="526" y="879" type="curve"/>
      <point x="513" y="893"/>
      <point x="500" y="895"/>
      <point x="471" y="865" type="curve" smooth="yes"/>
      <point x="448" y="841"/>
      <point x="489" y="790"/>
      <point x="509" y="753" type="curve"/>
      <point x="523" y="733"/>
      <point x="518" y="693"/>
    </contour>
  </outline>
</glyph>
<glyph name="hungarumlautcomb.case" format="2">
  <anchor x="533" y="785" name="_topUC"/>
  <anchor x="553" y="971" name="topUC"/>
  <outline>
    <contour>
      <point x="397" y="715" type="curve"/>
      <point x="434" y="702"/>
      <point x="438" y="735"/>
      <point x="453" y="744" type="curve"/>
      <point x="521" y="801"/>
      <point x="533" y="809"/>
      <point x="531" y="831" type="curve"/>
      <point x="521" y="866"/>
      <point x="507" y="882"/>
      <point x="480" y="868" type="curve"/>
      <point x="461" y="861"/>
      <point x="392" y="785"/>
      <point x="385" y="769" type="curve"/>
      <point x="382" y="741"/>
      <point x="388" y="720"/>
    </contour>
    <contour>
      <point x="556" y="717" type="curve"/>
      <point x="568" y="708"/>
      <point x="588" y="709"/>
      <point x="601" y="729" type="curve" smooth="yes"/>
      <point x="619" y="755"/>
      <point x="696" y="804"/>
      <point x="692" y="828" type="curve"/>
      <point x="679" y="875"/>
      <point x="661" y="880"/>
      <point x="640" y="868" type="curve"/>
      <point x="622" y="861"/>
      <point x="547" y="778"/>
      <point x="544" y="769" type="curve"/>
      <point x="543" y="758"/>
      <point x="546" y="726"/>
    </contour>
  </outline>
</glyph>
<glyph name="j.ss01" format="2">
  <advance width="213"/>
  <outline>
    <contour>
      <point x="-44" y="-228" type="curve"/>
      <point x="-25" y="-235"/>
      <point x="2" y="-234"/>
      <point x="20" y="-227" type="curve"/>
      <point x="44" y="-218"/>
      <point x="80" y="-194"/>
      <point x="106" y="-148" type="curve"/>
      <point x="127" y="-114"/>
      <point x="141" y="-78"/>
      <point x="149" y="-46" type="curve"/>
      <point x="159" y="-20"/>
      <point x="166" y="6"/>
      <point x="172" y="34" type="curve"/>
      <point x="176" y="48"/>
      <point x="177" y="60"/>
      <point x="182" y="87" type="curve"/>
      <point x="184" y="98"/>
      <point x="204" y="166"/>
      <point x="204" y="169" type="curve"/>
      <point x="214" y="206"/>
      <point x="242" y="293"/>
      <point x="258" y="293" type="curve"/>
      <point x="258" y="293"/>
      <point x="265" y="291"/>
      <point x="267" y="288" type="curve"/>
      <point x="275" y="285"/>
      <point x="282" y="285"/>
      <point x="288" y="291" type="curve"/>
      <point x="301" y="307"/>
      <point x="295" y="337"/>
      <point x="238" y="360" type="curve"/>
      <point x="217" y="365"/>
      <point x="194" y="369"/>
      <point x="180" y="358" type="curve"/>
      <point x="173" y="345"/>
      <point x="170" y="338"/>
      <point x="165" y="327" type="curve"/>
      <point x="147" y="289"/>
      <point x="127" y="219"/>
      <point x="122" y="187" type="curve"/>
      <point x="113" y="173"/>
      <point x="107" y="148"/>
      <point x="104" y="132" type="curve"/>
      <point x="96" y="85"/>
      <point x="85" y="22"/>
      <point x="74" y="-11" type="curve"/>
      <point x="68" y="-41"/>
      <point x="68" y="-59"/>
      <point x="43" y="-99" type="curve"/>
      <point x="26" y="-136"/>
      <point x="15" y="-152"/>
      <point x="-9" y="-150" type="curve"/>
      <point x="-29" y="-147"/>
      <point x="-51" y="-128"/>
      <point x="-51" y="-107" type="curve"/>
      <point x="-51" y="-92"/>
      <point x="-73" y="-66"/>
      <point x="-81" y="-66" type="curve"/>
      <point x="-90" y="-66"/>
      <point x="-106" y="-72"/>
      <point x="-112" y="-90" type="curve"/>
      <point x="-125" y="-131"/>
      <point x="-98" y="-206"/>
    </contour>
    <contour>
      <point x="235" y="480" type="curve"/>
      <point x="251" y="465"/>
      <point x="283" y="461"/>
      <point x="306" y="487" type="curve"/>
      <point x="333" y="519"/>
      <point x="336" y="562"/>
      <point x="317" y="583" type="curve"/>
      <point x="301" y="597"/>
      <point x="272" y="594"/>
      <point x="241" y="578" type="curve"/>
      <point x="240" y="565"/>
      <point x="234" y="551"/>
      <point x="228" y="538" type="curve"/>
      <point x="214" y="516"/>
      <point x="218" y="494"/>
    </contour>
  </outline>
</glyph>
<glyph name="macroncomb.case" format="2">
  <advance width="496"/>
  <anchor x="533" y="785" name="_topUC"/>
  <anchor x="553" y="941" name="topUC"/>
  <outline>
    <contour>
      <point x="466" y="760" type="curve"/>
      <point x="501" y="760"/>
      <point x="523" y="763"/>
      <point x="540" y="765" type="curve"/>
      <point x="563" y="766"/>
      <point x="607" y="769"/>
      <point x="621" y="769" type="curve"/>
      <point x="645" y="771"/>
      <point x="651" y="798"/>
      <point x="634" y="813" type="curve"/>
      <point x="618" y="829"/>
      <point x="596" y="834"/>
      <point x="555" y="834" type="curve" smooth="yes"/>
      <point x="514" y="834"/>
      <point x="481" y="828"/>
      <point x="440" y="820" type="curve"/>
      <point x="396" y="815"/>
      <point x="377" y="806"/>
      <point x="389" y="786" type="curve" smooth="yes"/>
      <point x="398" y="771"/>
      <point x="405" y="767"/>
      <point x="425" y="765" type="curve"/>
      <point x="438" y="761"/>
      <point x="452" y="759"/>
    </contour>
  </outline>
</glyph>
<glyph name="nine.numerator" format="2">
  <advance width="320"/>
  <outline>
    <contour>
      <point x="321" y="144" type="curve"/>
      <point x="331" y="143"/>
      <point x="382" y="208"/>
      <point x="389" y="226" type="curve"/>
      <point x="392" y="236"/>
      <point x="393" y="254"/>
      <point x="388" y="261" type="curve"/>
      <point x="384" y="261"/>
      <point x="371" y="262"/>
      <point x="368" y="263" type="curve"/>
      <point x="367" y="263"/>
      <point x="364" y="264"/>
      <point x="363" y="264" type="curve"/>
      <point x="362" y="264"/>
      <point x="360" y="265"/>
      <point x="359" y="266" type="curve"/>
      <point x="360" y="266" type="line"/>
      <point x="356" y="269"/>
      <point x="362" y="300"/>
      <point x="375" y="344" type="curve"/>
      <point x="398" y="420"/>
      <point x="438" y="513"/>
      <point x="463" y="538" type="curve"/>
      <point x="473" y="552"/>
      <point x="481" y="568"/>
      <point x="487" y="603" type="curve"/>
      <point x="490" y="623"/>
      <point x="456" y="686"/>
      <point x="435" y="696" type="curve"/>
      <point x="422" y="701"/>
      <point x="375" y="703"/>
      <point x="359" y="699" type="curve"/>
      <point x="318" y="691"/>
      <point x="264" y="635"/>
      <point x="234" y="582" type="curve"/>
      <point x="221" y="559"/>
      <point x="217" y="538"/>
      <point x="216" y="520" type="curve"/>
      <point x="213" y="470"/>
      <point x="266" y="424"/>
      <point x="313" y="432" type="curve"/>
      <point x="320" y="431"/>
      <point x="303" y="412"/>
      <point x="295" y="385" type="curve"/>
      <point x="280" y="336"/>
      <point x="272" y="281"/>
      <point x="269" y="248" type="curve"/>
      <point x="269" y="239" type="line" smooth="yes"/>
      <point x="269" y="235"/>
      <point x="268" y="231"/>
      <point x="268" y="228" type="curve"/>
      <point x="268" y="220" type="line" smooth="yes"/>
      <point x="267" y="208"/>
      <point x="270" y="200"/>
      <point x="270" y="200" type="curve"/>
      <point x="273" y="200"/>
      <point x="273" y="200"/>
      <point x="273" y="199" type="curve"/>
      <point x="273" y="193"/>
      <point x="312" y="145"/>
    </contour>
    <contour>
      <point x="300" y="513" type="curve"/>
      <point x="298" y="534"/>
      <point x="313" y="559"/>
      <point x="323" y="576" type="curve"/>
      <point x="322" y="576" type="line"/>
      <point x="329" y="580"/>
      <point x="333" y="590"/>
      <point x="333" y="596" type="curve"/>
      <point x="337" y="596"/>
      <point x="340" y="598"/>
      <point x="344" y="601" type="curve"/>
      <point x="364" y="616"/>
      <point x="360" y="615"/>
      <point x="374" y="618" type="curve"/>
      <point x="390" y="625"/>
      <point x="398" y="625"/>
      <point x="403" y="615" type="curve"/>
      <point x="406" y="614" type="line"/>
      <point x="404" y="614" type="line"/>
      <point x="409" y="607"/>
      <point x="407" y="598"/>
      <point x="398" y="586" type="curve"/>
      <point x="399" y="586" type="line"/>
      <point x="395" y="584"/>
      <point x="394" y="583"/>
      <point x="394" y="582" type="curve"/>
      <point x="387" y="571" type="line"/>
      <point x="387" y="572" type="line"/>
      <point x="383" y="567"/>
      <point x="373" y="553"/>
      <point x="373" y="553" type="curve"/>
      <point x="329" y="494"/>
      <point x="318" y="493"/>
    </contour>
  </outline>
</glyph>
<glyph name="q.ss02" format="2">
  <advance width="377"/>
  <outline>
    <contour>
      <point x="246" y="-229" type="curve"/>
      <point x="274" y="-229"/>
      <point x="340" y="-185"/>
      <point x="364" y="-161" type="curve"/>
      <point x="372" y="-153"/>
      <point x="378" y="-110"/>
      <point x="372" y="-111" type="curve"/>
      <point x="369" y="-109"/>
      <point x="341" y="-121"/>
      <point x="334" y="-120" type="curve"/>
      <point x="325" y="-119"/>
      <point x="318" y="-124"/>
      <point x="311" y="-127" type="curve"/>
      <point x="332" y="-79"/>
      <point x="334" y="-64"/>
      <point x="358" y="14" type="curve"/>
      <point x="373" y="46"/>
      <point x="389" y="109"/>
      <point x="401" y="142" type="curve"/>
      <point x="406" y="154"/>
      <point x="452" y="289"/>
      <point x="453" y="298" type="curve"/>
      <point x="457" y="305"/>
      <point x="459" y="315"/>
      <point x="461" y="337" type="curve"/>
      <point x="460" y="340"/>
      <point x="447" y="343"/>
      <point x="438" y="343" type="curve"/>
      <point x="439" y="349"/>
      <point x="438" y="357"/>
      <point x="438" y="365" type="curve"/>
      <point x="421" y="407"/>
      <point x="273" y="412"/>
      <point x="216" y="363" type="curve"/>
      <point x="206" y="353"/>
      <point x="193" y="339"/>
      <point x="182" y="334" type="curve"/>
      <point x="156" y="310"/>
      <point x="124" y="270"/>
      <point x="100" y="232" type="curve"/>
      <point x="76" y="187"/>
      <point x="61" y="146"/>
      <point x="71" y="127" type="curve"/>
      <point x="74" y="108"/>
      <point x="125" y="66"/>
      <point x="141" y="62" type="curve"/>
      <point x="170" y="51"/>
      <point x="241" y="61"/>
      <point x="289" y="108" type="curve"/>
      <point x="320" y="151" type="line"/>
      <point x="308" y="116"/>
      <point x="298" y="93"/>
      <point x="291" y="64" type="curve"/>
      <point x="279" y="32"/>
      <point x="276" y="16"/>
      <point x="257" y="-31" type="curve"/>
      <point x="248" y="-55"/>
      <point x="237" y="-90"/>
      <point x="228" y="-104" type="curve"/>
      <point x="210" y="-154"/>
      <point x="208" y="-178"/>
      <point x="214" y="-196" type="curve"/>
      <point x="218" y="-211"/>
      <point x="237" y="-229"/>
    </contour>
    <contour>
      <point x="177" y="138" type="curve"/>
      <point x="167" y="138"/>
      <point x="164" y="144"/>
      <point x="164" y="153" type="curve"/>
      <point x="165" y="173"/>
      <point x="180" y="202"/>
      <point x="203" y="230" type="curve"/>
      <point x="226" y="259"/>
      <point x="251" y="281"/>
      <point x="286" y="305" type="curve"/>
      <point x="321" y="328"/>
      <point x="332" y="325"/>
      <point x="374" y="329" type="curve"/>
      <point x="379" y="329"/>
      <point x="384" y="328"/>
      <point x="389" y="328" type="curve"/>
      <point x="381" y="322"/>
      <point x="368" y="309"/>
      <point x="361" y="295" type="curve"/>
      <point x="317" y="235" type="line"/>
      <point x="302" y="215"/>
      <point x="286" y="197"/>
      <point x="245" y="169" type="curve"/>
      <point x="220" y="149"/>
      <point x="209" y="138"/>
    </contour>
  </outline>
</glyph>
<glyph name="ringcomb.case" format="2">
  <advance width="496"/>
  <anchor x="533" y="785" name="_topUC"/>
  <anchor x="553" y="961" name="topUC"/>
  <outline>
    <contour>
      <point x="524" y="685" type="curve" smooth="yes"/>
      <point x="573" y="685"/>
      <point x="611" y="733"/>
      <point x="615" y="806" type="curve"/>
      <point x="615" y="845"/>
      <point x="589" y="872"/>
      <point x="531" y="874" type="curve" smooth="yes"/>
      <point x="486" y="874"/>
      <point x="448" y="822"/>
      <point x="450" y="759" type="curve"/>
      <point x="460" y="712"/>
      <point x="479" y="685"/>
    </contour>
    <contour>
      <point x="526" y="743" type="curve" smooth="yes"/>
      <point x="515" y="743"/>
      <point x="504" y="760"/>
      <point x="504" y="774" type="curve" smooth="yes"/>
      <point x="503" y="800"/>
      <point x="515" y="813"/>
      <point x="534" y="814" type="curve" smooth="yes"/>
      <point x="554" y="815"/>
      <point x="559" y="800"/>
      <point x="559" y="780" type="curve"/>
      <point x="557" y="762"/>
      <point x="550" y="743"/>
    </contour>
  </outline>
</glyph>
<glyph name="s.ss01" format="2">
  <advance width="350"/>
  <outline>
    <contour>
      <point x="194" y="-6" type="curve" smooth="yes"/>
      <point x="282" y="-6"/>
      <point x="321" y="42"/>
      <point x="272" y="144" type="curve" smooth="yes"/>
      <point x="264" y="160"/>
      <point x="258" y="172"/>
      <point x="255" y="175" type="curve"/>
      <point x="245" y="191"/>
      <point x="237" y="219"/>
      <point x="237" y="238" type="curve" smooth="yes"/>
      <point x="237" y="257"/>
      <point x="247" y="273"/>
      <point x="260" y="288" type="curve" smooth="yes"/>
      <point x="288" y="316"/>
      <point x="331" y="333"/>
      <point x="346" y="333" type="curve" smooth="yes"/>
      <point x="352" y="333"/>
      <point x="355" y="332"/>
      <point x="355" y="329" type="curve" smooth="yes"/>
      <point x="355" y="323"/>
      <point x="337" y="308"/>
      <point x="337" y="288" type="curve" smooth="yes"/>
      <point x="337" y="251"/>
      <point x="387" y="223"/>
      <point x="400" y="252" type="curve" smooth="yes"/>
      <point x="405" y="262"/>
      <point x="409" y="273"/>
      <point x="414" y="283" type="curve" smooth="yes"/>
      <point x="423" y="302"/>
      <point x="438" y="317"/>
      <point x="438" y="328" type="curve" smooth="yes"/>
      <point x="438" y="350"/>
      <point x="419" y="391"/>
      <point x="400" y="406" type="curve" smooth="yes"/>
      <point x="390" y="414"/>
      <point x="358" y="415"/>
      <point x="334" y="415" type="curve"/>
      <point x="299" y="411"/>
      <point x="237" y="377"/>
      <point x="195" y="341" type="curve" smooth="yes"/>
      <point x="169" y="318"/>
      <point x="150" y="294"/>
      <point x="150" y="275" type="curve" smooth="yes"/>
      <point x="152" y="230"/>
      <point x="156" y="186"/>
      <point x="189" y="137" type="curve"/>
      <point x="197" y="121"/>
      <point x="203" y="100"/>
      <point x="203" y="95" type="curve"/>
      <point x="198" y="70"/>
      <point x="149" y="66"/>
      <point x="117" y="89" type="curve" smooth="yes"/>
      <point x="107" y="96"/>
      <point x="98" y="102"/>
      <point x="91" y="103" type="curve"/>
      <point x="82" y="103"/>
      <point x="77" y="98"/>
      <point x="77" y="86" type="curve" smooth="yes"/>
      <point x="77" y="45"/>
      <point x="130" y="-6"/>
    </contour>
  </outline>
</glyph>
<glyph name="tildecomb.case" format="2">
  <advance width="496"/>
  <anchor x="534" y="785" name="_topUC"/>
  <anchor x="553" y="941" name="topUC"/>
  <outline>
    <contour>
      <point x="567" y="726" type="curve" smooth="yes"/>
      <point x="575" y="726"/>
      <point x="590" y="733"/>
      <point x="651" y="767" type="curve" smooth="yes"/>
      <point x="663" y="773"/>
      <point x="678" y="789"/>
      <point x="679" y="805" type="curve"/>
      <point x="681" y="817"/>
      <point x="663" y="848"/>
      <point x="649" y="842" type="curve" smooth="yes"/>
      <point x="621" y="831"/>
      <point x="604" y="817"/>
      <point x="584" y="812" type="curve"/>
      <point x="558" y="801"/>
      <point x="547" y="803"/>
      <point x="515" y="829" type="curve"/>
      <point x="494" y="851"/>
      <point x="474" y="864"/>
      <point x="432" y="854" type="curve"/>
      <point x="398" y="836"/>
      <point x="376" y="808"/>
      <point x="365" y="777" type="curve"/>
      <point x="369" y="751"/>
      <point x="379" y="743"/>
      <point x="392" y="740" type="curve"/>
      <point x="402" y="733"/>
      <point x="406" y="745"/>
      <point x="410" y="755" type="curve"/>
      <point x="431" y="758"/>
      <point x="434" y="789"/>
      <point x="455" y="789" type="curve" smooth="yes"/>
      <point x="471" y="789"/>
      <point x="491" y="764"/>
      <point x="503" y="757" type="curve"/>
      <point x="527" y="737"/>
      <point x="548" y="726"/>
    </contour>
  </outline>
</glyph>
<glyph name="ze-cy.ss02" format="2">
  <advance width="343"/>
  <outline>
    <contour>
      <point x="318" y="183" type="curve" smooth="yes"/>
      <point x="349" y="194"/>
      <point x="369" y="218"/>
      <point x="389" y="243" type="curve" smooth="yes"/>
      <point x="389" y="248"/>
      <point x="389" y="253"/>
      <point x="391" y="258" type="curve" smooth="yes"/>
      <point x="406" y="293"/>
      <point x="392" y="338"/>
      <point x="374" y="371" type="curve" smooth="yes"/>
      <point x="350" y="393"/>
      <point x="309" y="407"/>
      <point x="270" y="407" type="curve" smooth="yes"/>
      <point x="236" y="407"/>
      <point x="204" y="396"/>
      <point x="186" y="371" type="curve" smooth="yes"/>
      <point x="179" y="361"/>
      <point x="164" y="347"/>
      <point x="156" y="338" type="curve"/>
      <point x="145" y="301"/>
      <point x="137" y="301"/>
      <point x="137" y="290" type="curve" smooth="yes"/>
      <point x="137" y="281"/>
      <point x="170" y="251"/>
      <point x="202" y="259" type="curve" smooth="yes"/>
      <point x="223" y="264"/>
      <point x="232" y="326"/>
      <point x="293" y="326" type="curve" smooth="yes"/>
      <point x="303" y="326"/>
      <point x="307" y="317"/>
      <point x="307" y="307" type="curve" smooth="yes"/>
      <point x="307" y="292"/>
      <point x="299" y="271"/>
      <point x="294" y="266" type="curve" smooth="yes"/>
      <point x="275" y="244"/>
      <point x="237" y="230"/>
      <point x="213" y="216" type="curve" smooth="yes"/>
      <point x="213" y="207"/>
      <point x="214.03650238970135" y="198.18972968753846"/>
      <point x="217" y="173" type="curve" smooth="yes"/>
      <point x="241" y="156"/>
      <point x="231" y="152"/>
      <point x="245" y="138" type="curve" smooth="yes"/>
      <point x="251" y="109"/>
      <point x="250" y="66"/>
      <point x="209" y="67" type="curve" smooth="yes"/>
      <point x="162" y="68"/>
      <point x="167" y="124"/>
      <point x="148" y="146" type="curve" smooth="yes"/>
      <point x="134" y="162"/>
      <point x="113" y="142"/>
      <point x="92" y="143" type="curve" smooth="yes"/>
      <point x="77" y="144"/>
      <point x="81" y="114"/>
      <point x="78" y="99" type="curve" smooth="yes"/>
      <point x="75" y="86"/>
      <point x="88" y="74"/>
      <point x="91" y="61" type="curve" smooth="yes"/>
      <point x="92" y="57"/>
      <point x="97" y="54"/>
      <point x="100" y="50" type="curve" smooth="yes"/>
      <point x="118" y="20"/>
      <point x="130" y="12"/>
      <point x="160" y="-5" type="curve" smooth="yes"/>
      <point x="175" y="-13"/>
      <point x="193" y="-17"/>
      <point x="211" y="-17" type="curve" smooth="yes"/>
      <point x="316" y="-17"/>
      <point x="396" y="93"/>
    </contour>
  </outline>
</glyph>
